<?xml version="1.0" encoding="UTF-8" standalone="no"?>
<svg width="41px" height="38px" viewBox="0 0 41 38" version="1.1" xmlns="http://www.w3.org/2000/svg" xmlns:xlink="http://www.w3.org/1999/xlink" xmlns:sketch="http://www.bohemiancoding.com/sketch/ns">
    <!-- Generator: Sketch 3.4.4 (17249) - http://www.bohemiancoding.com/sketch -->
    <title>Untitled 9</title>
    <desc>Created with Sketch.</desc>
    <defs></defs>
    <g id="Page-1" stroke="none" stroke-width="1" fill="none" fill-rule="evenodd" sketch:type="MSPage">
        <g id="picture" sketch:type="MSLayerGroup">
            <path d="M2.726,37.883 C4.255,37.883 5.494,36.893 5.494,35.668 L6.601,35.668 C6.601,36.893 7.84,37.883 9.369,37.883 C10.898,37.883 12.137,36.893 12.137,35.668 L13.244,35.668 C13.244,36.893 14.483,37.883 16.012,37.883 C17.541,37.883 18.781,36.893 18.781,35.668 L19.887,35.668 C19.887,36.893 21.127,37.883 22.656,37.883 C24.185,37.883 25.425,36.893 25.425,35.668 L26.53,35.668 C26.53,36.893 27.768,37.883 29.298,37.883 C29.64,37.883 29.966,37.826 30.267,37.737 L40.003,28.003 C15.049,-20 4.026,27.999 4.003,28.003 L0.003,28.003 L0.003,36 C0.2,37.062 1.339,37.883 2.726,37.883 L2.726,37.883 Z" id="Shape" fill="#F39C12" sketch:type="MSShapeGroup"></path>
            <path d="M7,18 L10,18 L10,28 L7,28 L7,18 L7,18 Z" id="Shape" fill="#34495E" sketch:type="MSShapeGroup"></path>
            <path d="M7,25 L32,25 L7,0 L7,25 L7,25 Z" id="Shape" fill="#F1C40E" sketch:type="MSShapeGroup"></path>
            <path d="M40,28 L39.896,28 L4,28 L0,28 L0,30 L38,30 L40,28 Z" id="Shape" fill="#DA8C11" sketch:type="MSShapeGroup"></path>
        </g>
    </g>
</svg>