<?xml version="1.0" encoding="UTF-8" standalone="no"?>
<svg width="100px" height="52px" viewBox="0 0 100 52" version="1.1" xmlns="http://www.w3.org/2000/svg" xmlns:xlink="http://www.w3.org/1999/xlink" xmlns:sketch="http://www.bohemiancoding.com/sketch/ns">
    <!-- Generator: Sketch 3.4.4 (17249) - http://www.bohemiancoding.com/sketch -->
    <title>Untitled</title>
    <desc>Created with Sketch.</desc>
    <defs></defs>
    <g id="Page-1" stroke="none" stroke-width="1" fill="none" fill-rule="evenodd" sketch:type="MSPage">
        <g id="converse" sketch:type="MSLayerGroup">
            <path d="M71.585,28.924 C56.13,27.965 43.789,15.51 43.038,0 L3,0 L3,44 L71.585,44 L71.585,28.924 L71.585,28.924 Z" id="Shape" fill="#E45136" sketch:type="MSShapeGroup"></path>
            <path d="M2,44 L98,44 C99.104,44 100,44.896 100,46 L100,50 C100,51.105 99.104,52 98,52 L2,52 C0.896,52 0,51.105 0,50 L0,46 C0,44.895 0.896,44 2,44 L2,44 Z" id="Shape" fill="#D4D8DB" sketch:type="MSShapeGroup"></path>
            <path d="M4,52 L8,52 L8,46 L4,46 L4,52 L4,52 Z M12,52 L16,52 L16,46 L12,46 L12,52 L12,52 Z M20,52 L24,52 L24,46 L20,46 L20,52 L20,52 Z M28,52 L32,52 L32,46 L28,46 L28,52 L28,52 Z M36,52 L40,52 L40,46 L36,46 L36,52 L36,52 Z M44,52 L48,52 L48,46 L44,46 L44,52 L44,52 Z M52,52 L56,52 L56,46 L52,46 L52,52 L52,52 Z M60,52 L64,52 L64,46 L60,46 L60,52 L60,52 Z M68,52 L72,52 L72,46 L68,46 L68,52 L68,52 Z M76,52 L80,52 L80,46 L76,46 L76,52 L76,52 Z M84,52 L88,52 L88,46 L84,46 L84,52 L84,52 Z M92,46 L92,52 L96,52 L96,46 L92,46 L92,46 Z" id="Shape" fill="#BDC3C7" sketch:type="MSShapeGroup"></path>
            <path d="M21,10 C26.523,10 31,14.479 31,20 C31,25.523 26.523,30 21,30 C15.477,30 11,25.523 11,20 C11,14.477 15.477,10 21,10 L21,10 Z" id="Shape" fill="#EBEDEE" sketch:type="MSShapeGroup"></path>
            <path d="M21,14 L22.978,17.457 L27,18.202 L24.2,21.083 L24.708,25 L21,23.324 L17.292,25 L17.8,21.083 L15.001,18.202 L19.022,17.457 L21,14" id="Shape" fill="#F39C12" sketch:type="MSShapeGroup"></path>
            <path d="M44.233,11.096 L45.27,10.059 C44.706,8.684 44.241,7.258 43.881,5.79 L41.404,8.268 C40.623,9.049 40.623,10.316 41.404,11.096 C42.185,11.879 43.451,11.879 44.233,11.096 L44.233,11.096 Z M47.404,25.096 C48.185,25.876 49.451,25.876 50.233,25.096 L53.666,21.662 C52.652,20.795 51.699,19.857 50.807,18.864 L47.405,22.265 C46.623,23.049 46.623,24.315 47.404,25.096 L47.404,25.096 Z M62.662,27.01 L61.404,28.268 C60.623,29.049 60.623,30.317 61.404,31.098 C62.183,31.879 63.451,31.879 64.232,31.098 L67.025,28.303 C65.527,27.979 64.07,27.545 62.662,27.01 L62.662,27.01 Z M43.404,19.096 C44.185,19.876 45.451,19.876 46.233,19.096 L48.86,16.469 C48.055,15.366 47.324,14.207 46.671,13 L43.404,16.268 C42.623,17.049 42.623,18.315 43.404,19.096 L43.404,19.096 Z M53.404,29.096 C54.183,29.876 55.451,29.876 56.232,29.096 L59.652,25.676 C58.423,25.047 57.242,24.338 56.117,23.555 L53.404,26.268 C52.623,27.049 52.623,28.314 53.404,29.096 L53.404,29.096 Z" id="Shape" fill="#EBEDEE" sketch:type="MSShapeGroup"></path>
            <path d="M43.038,0 L3,0 L3,4 L43.504,4 C43.266,2.693 43.104,1.359 43.038,0 L43.038,0 Z" id="Shape" fill="#2C3E51" sketch:type="MSShapeGroup"></path>
            <path d="M96.787,38.704 C95.863,33.742 91.939,29.844 86.966,28.951 L71.585,28.951 L71.585,44 L96.789,44 L96.789,38.704 L96.787,38.704 L96.787,38.704 Z" id="Shape" fill="#EBEDEE" sketch:type="MSShapeGroup"></path>
            <path d="M98,44 L2,44 C0.896,44 0,44.896 0,46 L100,46 C100,44.895 99.104,44 98,44 L98,44 Z" id="Shape" fill="#2C3E51" sketch:type="MSShapeGroup"></path>
        </g>
    </g>
</svg>