<?xml version="1.0" encoding="UTF-8" standalone="no"?>
<svg width="125px" height="145px" viewBox="0 0 125 145" version="1.1" xmlns="http://www.w3.org/2000/svg" xmlns:xlink="http://www.w3.org/1999/xlink" xmlns:sketch="http://www.bohemiancoding.com/sketch/ns">
    <!-- Generator: Sketch 3.4.4 (17249) - http://www.bohemiancoding.com/sketch -->
    <title>Untitled</title>
    <desc>Created with Sketch.</desc>
    <defs></defs>
    <g id="Page-1" stroke="none" stroke-width="1" fill="none" fill-rule="evenodd" sketch:type="MSPage">
        <g id="Cow" sketch:type="MSLayerGroup">
            <path d="M91.524,130.246 C88.82,130.246 87.033,129.787 86.981,129.772 L88.026,125.876 C88.538,126.011 100.629,129.006 108.364,116.077 L111.825,118.148 C105.644,128.481 96.823,130.246 91.524,130.246" id="Fill-359" fill="#FFFFFF" sketch:type="MSShapeGroup"></path>
            <path d="M110.113,109.61 L110.089,109.588 L110.436,109.512 L110.616,109.457 C110.811,109.408 111.004,109.371 111.197,109.344 L119.55,107.49 L117.563,116.374 L117.562,116.372 C117.07,118.363 115.524,120.025 113.396,120.559 C110.331,121.326 107.223,119.463 106.457,116.398 C105.731,113.504 107.352,110.575 110.113,109.61" id="Fill-360" fill="#948677" sketch:type="MSShapeGroup"></path>
            <path d="M89.186,74.851 L35.712,74.851 C31.826,83.155 29.53,93.334 29.53,104.344 C29.53,120.524 34.48,134.92 42.17,144.181 L55.2,144.181 C54.834,142.768 54.627,141.227 54.627,139.609 C54.627,132.864 58.139,127.396 62.472,127.396 C66.806,127.396 70.316,132.864 70.316,139.609 C70.316,141.227 70.109,142.768 69.743,144.181 L82.729,144.181 C90.419,134.92 95.368,120.524 95.368,104.344 C95.368,93.334 93.072,83.155 89.186,74.851" id="Fill-361" fill="#FDFDFD" sketch:type="MSShapeGroup"></path>
            <path d="M37.544,0.324 C37.544,0.324 24.904,10.838 34.88,22.22 L44.091,17.359 C44.091,17.359 33.51,13.685 37.544,0.324" id="Fill-362" fill="#948677" sketch:type="MSShapeGroup"></path>
            <path d="M86.636,0.324 C86.636,0.324 99.275,10.838 89.3,22.22 L80.09,17.359 C80.09,17.359 90.671,13.685 86.636,0.324" id="Fill-363" fill="#948677" sketch:type="MSShapeGroup"></path>
            <path d="M34.88,26.504 C34.88,26.504 25.617,15.544 0.137,17.62 C0.137,17.62 7.244,34.067 22.419,38.404 L34.88,26.504" id="Fill-364" fill="#DDDED9" sketch:type="MSShapeGroup"></path>
            <path d="M30.912,28.718 C30.912,28.718 25.322,22.101 9.938,23.355 C9.938,23.355 14.229,33.283 23.389,35.902 L30.912,28.718" id="Fill-365" fill="#EEA29E" sketch:type="MSShapeGroup"></path>
            <path d="M90.203,26.504 C90.203,26.504 99.466,15.544 124.947,17.62 C124.947,17.62 117.84,34.067 102.665,38.404 L90.203,26.504" id="Fill-366" fill="#FCFCFB" sketch:type="MSShapeGroup"></path>
            <path d="M94.17,28.718 C94.17,28.718 99.762,22.102 115.145,23.355 C115.145,23.355 110.854,33.283 101.693,35.902 L94.17,28.718" id="Fill-367" fill="#EEA29E" sketch:type="MSShapeGroup"></path>
            <path d="M112.117,64.754 C112.117,92.994 89.881,115.888 62.45,115.888 C35.02,115.888 12.782,92.994 12.782,64.754 C12.782,36.513 35.02,13.619 62.45,13.619 C89.881,13.619 112.117,36.513 112.117,64.754" id="Fill-368" fill="#FFFFFF" sketch:type="MSShapeGroup"></path>
            <path d="M114.311,89.682 C114.311,106.585 90.946,120.289 62.125,120.289 C33.302,120.289 9.938,106.585 9.938,89.682 C9.938,72.775 33.302,61.691 62.125,61.691 C90.946,61.691 114.311,72.775 114.311,89.682" id="Fill-369" fill="#EEA29E" sketch:type="MSShapeGroup"></path>
            <path d="M81.053,100.176 C81.053,102.814 78.914,104.952 76.276,104.952 C73.637,104.952 71.498,102.814 71.498,100.176 C71.498,97.537 73.637,95.398 76.276,95.398 C78.914,95.398 81.053,97.537 81.053,100.176" id="Fill-370" fill="#C88B86" sketch:type="MSShapeGroup"></path>
            <path d="M52.71,100.176 C52.71,102.814 50.571,104.952 47.932,104.952 C45.294,104.952 43.156,102.814 43.156,100.176 C43.156,97.537 45.294,95.398 47.932,95.398 C50.571,95.398 52.71,97.537 52.71,100.176" id="Fill-371" fill="#C88B86" sketch:type="MSShapeGroup"></path>
            <path d="M82.565,54.644 C76.791,54.644 72.11,49.961 72.11,44.187 C72.11,38.414 76.791,33.731 82.565,33.731 C88.342,33.731 93.02,38.414 93.02,44.187 C93.02,49.961 88.342,54.644 82.565,54.644" id="Fill-372" fill="#C7C7C2" sketch:type="MSShapeGroup"></path>
            <path d="M54.451,48.821 C58.111,44.597 56.271,39.646 52.202,36.419 C47.213,32.461 40.1,30.848 33.765,31.836 C27.998,32.736 23.404,35.897 19.119,39.465 C15.837,45.754 13.805,52.83 13.341,60.35 C20.94,59.639 28.559,58.857 36.008,57.201 C42.303,55.803 50.119,53.822 54.451,48.821" id="Fill-373" fill="#887C6D" sketch:type="MSShapeGroup"></path>
            <path d="M49.444,44.364 C49.444,48.581 46.027,52.002 41.809,52.002 C37.591,52.002 34.172,48.581 34.172,44.364 C34.172,40.147 37.591,36.726 41.809,36.726 C46.027,36.726 49.444,40.147 49.444,44.364" id="Fill-374" fill="#1A1A18" sketch:type="MSShapeGroup"></path>
            <path d="M45.855,44.187 C45.855,45.162 45.065,45.951 44.092,45.951 C43.117,45.951 42.329,45.162 42.329,44.187 C42.329,43.213 43.117,42.424 44.092,42.424 C45.065,42.424 45.855,43.213 45.855,44.187" id="Fill-375" fill="#FFFFFF" sketch:type="MSShapeGroup"></path>
            <path d="M90.203,44.364 C90.203,48.581 86.785,52.002 82.566,52.002 C78.349,52.002 74.929,48.581 74.929,44.364 C74.929,40.146 78.349,36.727 82.566,36.727 C86.785,36.727 90.203,40.146 90.203,44.364" id="Fill-376" fill="#1A1A18" sketch:type="MSShapeGroup"></path>
            <path d="M86.613,44.188 C86.613,45.162 85.824,45.951 84.85,45.951 C83.875,45.951 83.086,45.162 83.086,44.188 C83.086,43.213 83.875,42.424 84.85,42.424 C85.824,42.424 86.613,43.213 86.613,44.188" id="Fill-377" fill="#FFFFFF" sketch:type="MSShapeGroup"></path>
            <path d="M45.857,133.513 C40.242,133.513 35.69,138.064 35.69,143.68 C35.69,143.85 35.707,144.014 35.715,144.181 L42.109,144.181 C42.17,142.158 43.82,140.535 45.857,140.535 C47.893,140.535 49.545,142.158 49.605,144.181 L55.997,144.181 C56.007,144.014 56.024,143.85 56.024,143.68 C56.024,138.064 51.473,133.513 45.857,133.513" id="Fill-378" fill="#1A1A18" sketch:type="MSShapeGroup"></path>
            <path d="M77.205,133.513 C71.59,133.513 67.037,138.064 67.037,143.68 C67.037,143.85 67.055,144.014 67.063,144.181 L73.457,144.181 C73.518,142.158 75.168,140.535 77.205,140.535 C79.242,140.535 80.893,142.158 80.953,144.181 L87.346,144.181 C87.354,144.014 87.372,143.85 87.372,143.68 C87.372,138.064 82.82,133.513 77.205,133.513" id="Fill-379" fill="#1A1A18" sketch:type="MSShapeGroup"></path>
            <path d="M49.603,144.118 L42.126,144.118 L42.113,144.101 C42.214,142.116 43.847,140.535 45.857,140.535 C47.872,140.535 49.511,142.125 49.603,144.118" id="Fill-380" fill="#C2C3BF" sketch:type="MSShapeGroup"></path>
            <path d="M35.711,144.118 L35.671,144.118 C35.663,143.951 35.645,143.787 35.645,143.617 C35.645,141.355 36.394,139.272 37.643,137.584 C37.654,137.603 37.665,137.622 37.676,137.641 C36.428,139.33 35.69,141.419 35.69,143.68 C35.69,143.828 35.703,143.973 35.711,144.118 M35.755,133.936 C32.981,128.064 31.007,121.242 30.084,113.843 C30.094,113.848 30.102,113.851 30.112,113.856 C31.028,121.246 32.992,128.065 35.755,133.936 M13.167,100.306 C11.051,96.979 9.894,93.379 9.894,89.619 C9.894,85.209 11.496,81.199 14.358,77.675 C13.304,73.528 12.738,69.178 12.738,64.691 C12.738,57.53 14.173,50.716 16.755,44.529 C17.44,42.771 18.211,41.058 19.075,39.402 C19.177,39.317 19.281,39.236 19.384,39.152 C19.662,38.657 19.945,38.166 20.239,37.68 C20.257,37.687 20.276,37.694 20.294,37.701 C19.989,38.205 19.692,38.714 19.403,39.23 C19.308,39.308 19.213,39.386 19.119,39.465 C18.251,41.129 17.47,42.848 16.782,44.616 C14.208,50.795 12.782,57.604 12.782,64.754 C12.782,69.235 13.343,73.584 14.395,77.727 C11.529,81.253 9.938,85.268 9.938,89.682 C9.938,93.417 11.078,96.996 13.167,100.306 M32.197,24.197 C28.406,21.488 20.339,17.359 6.391,17.359 C4.424,17.359 2.342,17.44 0.137,17.62 C0.137,17.62 1.055,19.745 2.937,22.67 C1.026,19.714 0.093,17.558 0.093,17.558 C2.299,17.378 4.383,17.296 6.35,17.296 C20.314,17.296 28.376,21.434 32.16,24.143 C33.029,23.455 33.917,22.792 34.83,22.162 C34.845,22.18 34.862,22.199 34.877,22.216 C33.962,22.846 33.068,23.507 32.197,24.197 M33.591,20.581 C26.004,9.823 37.5,0.262 37.5,0.262 C37.486,0.306 37.473,0.352 37.46,0.396 C36.431,1.293 26.475,10.394 33.591,20.581 M43.923,17.295 C43.256,17.025 40.728,15.872 38.834,13.243 C40.745,15.858 43.274,16.99 43.898,17.239 C49.62,14.872 55.862,13.557 62.406,13.557 L62.498,13.559 L62.498,13.619 L62.45,13.619 C55.901,13.619 49.649,14.924 43.923,17.295" id="Fill-381" fill="#C3B1A1" sketch:type="MSShapeGroup"></path>
            <path d="M54.617,138.515 C52.848,135.521 49.587,133.513 45.857,133.513 C42.503,133.513 39.528,135.137 37.676,137.641 C37.665,137.622 37.654,137.603 37.643,137.584 C37.645,137.582 37.646,137.58 37.647,137.578 C36.982,136.41 36.35,135.195 35.755,133.936 C32.992,128.065 31.028,121.246 30.112,113.856 C38.951,117.888 50.06,120.289 62.125,120.289 C62.25,120.289 62.373,120.289 62.498,120.288 L62.498,127.338 L62.428,127.334 C58.319,127.334 54.955,132.254 54.617,138.515" id="Fill-382" fill="#C2C3BF" sketch:type="MSShapeGroup"></path>
            <path d="M34.877,22.216 C34.862,22.199 34.845,22.18 34.83,22.162 C34.833,22.16 34.836,22.158 34.839,22.156 L34.836,22.157 C34.374,21.63 33.96,21.104 33.591,20.581 C26.475,10.394 36.431,1.293 37.46,0.396 C35.637,6.553 36.928,10.635 38.834,13.243 C40.728,15.872 43.256,17.025 43.923,17.295 C40.731,18.617 37.7,20.273 34.877,22.216" id="Fill-383" fill="#756B5E" sketch:type="MSShapeGroup"></path>
            <path d="M20.294,37.701 C20.276,37.694 20.257,37.687 20.239,37.68 C20.248,37.665 20.257,37.65 20.267,37.635 C11.763,34.432 6.051,27.488 2.937,22.67 C1.055,19.745 0.137,17.62 0.137,17.62 C2.342,17.44 4.424,17.359 6.391,17.359 C20.339,17.359 28.406,21.488 32.197,24.197 C31.056,25.1 29.956,26.052 28.897,27.052 C26.465,25.426 21.678,23.197 13.715,23.197 C12.527,23.197 11.27,23.247 9.938,23.355 C9.938,23.355 13.733,32.136 21.803,35.36 C21.28,36.125 20.777,36.906 20.294,37.701" id="Fill-384" fill="#ACADA9" sketch:type="MSShapeGroup"></path>
            <path d="M21.803,35.36 C13.733,32.136 9.938,23.355 9.938,23.355 C11.27,23.247 12.527,23.197 13.715,23.197 C21.678,23.197 26.465,25.426 28.897,27.052 C26.253,29.547 23.873,32.332 21.803,35.36" id="Fill-385" fill="#B97E7B" sketch:type="MSShapeGroup"></path>
            <path d="M14.395,77.727 C13.343,73.584 12.782,69.235 12.782,64.754 C12.782,57.604 14.208,50.795 16.782,44.616 C14.871,49.529 13.682,54.82 13.341,60.35 C20.94,59.639 28.559,58.857 36.008,57.201 C42.303,55.803 50.119,53.822 54.451,48.821 C58.111,44.597 56.271,39.646 52.202,36.419 C48.17,33.22 42.75,31.553 37.474,31.553 C36.223,31.553 34.98,31.646 33.765,31.836 C28.125,32.716 23.607,35.759 19.403,39.23 C19.692,38.714 19.989,38.205 20.294,37.701 C20.777,36.906 21.28,36.125 21.803,35.36 C23.873,32.332 26.253,29.547 28.897,27.052 C29.956,26.052 31.056,25.1 32.197,24.197 C33.068,23.507 33.962,22.846 34.877,22.216 C37.7,20.273 40.731,18.617 43.923,17.295 C49.649,14.924 55.901,13.619 62.45,13.619 L62.498,13.619 L62.498,61.692 C62.373,61.692 62.25,61.691 62.125,61.691 C40.826,61.691 22.507,67.745 14.395,77.727" id="Fill-386" fill="#C7C7C2" sketch:type="MSShapeGroup"></path>
            <path d="M62.125,120.289 C50.06,120.289 38.951,117.888 30.112,113.856 C30.102,113.851 30.094,113.848 30.084,113.843 C30.082,113.824 30.079,113.806 30.077,113.787 C22.497,110.328 16.583,105.674 13.167,100.306 C11.078,96.996 9.938,93.417 9.938,89.682 C9.938,85.268 11.529,81.253 14.395,77.727 C22.507,67.745 40.826,61.691 62.125,61.691 C62.25,61.691 62.373,61.692 62.498,61.692 L62.498,120.288 C62.373,120.289 62.25,120.289 62.125,120.289 M47.932,95.398 C45.294,95.398 43.156,97.537 43.156,100.176 C43.156,102.814 45.294,104.952 47.932,104.952 C50.571,104.952 52.71,102.814 52.71,100.176 C52.71,97.537 50.571,95.398 47.932,95.398" id="Fill-387" fill="#B97E7B" sketch:type="MSShapeGroup"></path>
            <path d="M47.932,104.952 C45.294,104.952 43.156,102.814 43.156,100.176 C43.156,97.537 45.294,95.398 47.932,95.398 C50.571,95.398 52.71,97.537 52.71,100.176 C52.71,102.814 50.571,104.952 47.932,104.952" id="Fill-388" fill="#9E706B" sketch:type="MSShapeGroup"></path>
            <path d="M13.341,60.35 C13.682,54.82 14.871,49.529 16.782,44.616 C17.47,42.848 18.251,41.129 19.119,39.465 C19.213,39.386 19.308,39.308 19.403,39.23 C23.607,35.759 28.125,32.716 33.765,31.836 C34.98,31.646 36.223,31.553 37.474,31.553 C42.75,31.553 48.17,33.22 52.202,36.419 C56.271,39.646 58.111,44.597 54.451,48.821 C50.119,53.822 42.303,55.803 36.008,57.201 C28.559,58.857 20.94,59.639 13.341,60.35 M41.809,36.726 C37.591,36.726 34.172,40.147 34.172,44.364 C34.172,48.581 37.591,52.002 41.809,52.002 C46.027,52.002 49.444,48.581 49.444,44.364 C49.444,40.147 46.027,36.726 41.809,36.726" id="Fill-389" fill="#6A6156" sketch:type="MSShapeGroup"></path>
            <path d="M41.809,52.002 C37.591,52.002 34.172,48.581 34.172,44.364 C34.172,40.147 37.591,36.726 41.809,36.726 C46.027,36.726 49.444,40.147 49.444,44.364 C49.444,48.581 46.027,52.002 41.809,52.002 M44.092,42.424 C43.117,42.424 42.329,43.213 42.329,44.187 C42.329,45.162 43.117,45.951 44.092,45.951 C45.065,45.951 45.855,45.162 45.855,44.187 C45.855,43.213 45.065,42.424 44.092,42.424" id="Fill-390" fill="#161614" sketch:type="MSShapeGroup"></path>
            <path d="M44.092,45.951 C43.117,45.951 42.329,45.162 42.329,44.187 C42.329,43.213 43.117,42.424 44.092,42.424 C45.065,42.424 45.855,43.213 45.855,44.187 C45.855,45.162 45.065,45.951 44.092,45.951" id="Fill-391" fill="#C7C7C2" sketch:type="MSShapeGroup"></path>
            <path d="M55.953,144.118 L49.603,144.118 C49.511,142.125 47.872,140.535 45.857,140.535 C43.847,140.535 42.214,142.116 42.113,144.101 L42.074,144.052 L42.065,144.118 L35.711,144.118 C35.703,143.973 35.69,143.828 35.69,143.68 C35.69,141.419 36.428,139.33 37.676,137.641 C39.528,135.137 42.503,133.513 45.857,133.513 C49.587,133.513 52.848,135.521 54.617,138.515 C54.616,138.525 54.616,138.534 54.615,138.544 C55.479,140.039 55.98,141.768 55.98,143.617 C55.98,143.787 55.963,143.951 55.953,144.118" id="Fill-392" fill="#161614" sketch:type="MSShapeGroup"></path>
        </g>
    </g>
</svg>