<?xml version="1.0" encoding="UTF-8" standalone="no"?>
<svg width="130px" height="81px" viewBox="0 0 130 81" version="1.1" xmlns="http://www.w3.org/2000/svg" xmlns:xlink="http://www.w3.org/1999/xlink" xmlns:sketch="http://www.bohemiancoding.com/sketch/ns">
    <!-- Generator: Sketch 3.4.4 (17249) - http://www.bohemiancoding.com/sketch -->
    <title>Untitled</title>
    <desc>Created with Sketch.</desc>
    <defs></defs>
    <g id="Page-1" stroke="none" stroke-width="1" fill="none" fill-rule="evenodd" sketch:type="MSPage">
        <g id="dude-+-girl" sketch:type="MSLayerGroup">
            <g id="dude" sketch:type="MSShapeGroup">
                <path d="M53,53 L5,53 C2.239,53 0,50.762 0,48 L0,30 C0,26.134 3.134,24 7,24 L51,24 C54.866,24 58,26.134 58,30 L58,48 C58,50.762 55.762,53 53,53 L53,53 Z" id="Shape" fill="#D35400"></path>
                <path d="M29,8 C43.359,8 55,19.641 55,34 L55,55 C55,69.359 43.359,81 29,81 C14.641,81 3,69.359 3,55 L3,34 C3,19.641 14.641,8 29,8 L29,8 Z" id="Shape" fill="#DF9274"></path>
                <path d="M19,46.5 C16.519,46.5 14.5,44.481 14.5,42 C14.5,39.519 16.519,37.5 19,37.5 C21.481,37.5 23.5,39.519 23.5,42 C23.5,44.481 21.481,46.5 19,46.5 L19,46.5 Z" id="Shape" fill="#3498DB"></path>
                <path d="M19,39 C20.654,39 22,40.346 22,42 C22,43.654 20.654,45 19,45 C17.346,45 16,43.654 16,42 C16,40.346 17.346,39 19,39 L19,39 Z M19,36 C15.687,36 13,38.687 13,42 C13,45.313 15.687,48 19,48 C22.313,48 25,45.313 25,42 C25,38.687 22.313,36 19,36 L19,36 Z" id="Shape" fill="#FFFFFF"></path>
                <path d="M39,46.5 C36.519,46.5 34.5,44.481 34.5,42 C34.5,39.519 36.519,37.5 39,37.5 C41.481,37.5 43.5,39.519 43.5,42 C43.5,44.481 41.481,46.5 39,46.5 L39,46.5 Z" id="Shape" fill="#3498DB"></path>
                <path d="M39,39 C40.654,39 42,40.346 42,42 C42,43.654 40.654,45 39,45 C37.346,45 36,43.654 36,42 C36,40.346 37.346,39 39,39 L39,39 Z M39,36 C35.687,36 33,38.687 33,42 C33,45.313 35.687,48 39,48 C42.313,48 45,45.313 45,42 C45,38.687 42.313,36 39,36 L39,36 Z" id="Shape" fill="#FFFFFF"></path>
                <path d="M40,61 C40,66.523 35.075,71 29,71 C22.925,71 18,66.523 18,61 L40,61 L40,61 Z" id="Shape" stroke="#C27A5E" stroke-width="2" fill="#FFFFFF"></path>
                <path d="M29,0 C45.016,0 58,13.984 58,30 C50.562,30 42,17 42,17 C42,17 18.616,30 0,30 C0,13.984 12.984,0 29,0 L29,0 Z" id="Shape" fill="#D35400"></path>
            </g>
            <g id="girl" transform="translate(64.000000, 7.000000)" sketch:type="MSShapeGroup">
                <path d="M33,1 C16.984,1 4,14.984 4,31 L4,63 C4,65.762 6.239,68 9,68 L57,68 C59.762,68 62,65.762 62,63 L62,31 C62,14.984 49.016,1 33,1 L33,1 Z" id="Shape" fill="#D35400"></path>
                <circle id="Oval" fill="#D48A6D" cx="7" cy="37" r="7"></circle>
                <circle id="Oval" fill="#D48A6D" cx="59" cy="37" r="7"></circle>
                <path d="M33,7 C47.359,7 59,18.641 59,33 L59,48 C59,62.359 47.359,74 33,74 C18.641,74 7,62.359 7,48 L7,33 C7,18.641 18.641,7 33,7 L33,7 Z" id="Shape" fill="#DF9274"></path>
                <path d="M33,0 C16.984,0 4,13.984 4,30 C22.616,30 43,16 43,16 C43,16 54.562,30 62,30 C62,13.984 49.016,0 33,0 L33,0 Z" id="Shape" fill="#D35400"></path>
                <path d="M23,42.5 C20.519,42.5 18.5,40.481 18.5,38 C18.5,35.519 20.519,33.5 23,33.5 C25.481,33.5 27.5,35.519 27.5,38 C27.5,40.481 25.481,42.5 23,42.5 L23,42.5 Z" id="Shape" fill="#3498DB"></path>
                <path d="M23,35 C24.654,35 26,36.346 26,38 C26,39.654 24.654,41 23,41 C21.346,41 20,39.654 20,38 C20,36.346 21.346,35 23,35 L23,35 Z M23,32 C19.687,32 17,34.687 17,38 C17,41.313 19.687,44 23,44 C26.313,44 29,41.313 29,38 C29,34.687 26.313,32 23,32 L23,32 Z" id="Shape" fill="#FFFFFF"></path>
                <path d="M43,42.5 C40.519,42.5 38.5,40.481 38.5,38 C38.5,35.519 40.519,33.5 43,33.5 C45.481,33.5 47.5,35.519 47.5,38 C47.5,40.481 45.481,42.5 43,42.5 L43,42.5 Z" id="Shape" fill="#3498DB"></path>
                <path d="M43,35 C44.654,35 46,36.346 46,38 C46,39.654 44.654,41 43,41 C41.346,41 40,39.654 40,38 C40,36.346 41.346,35 43,35 L43,35 Z M43,32 C39.687,32 37,34.687 37,38 C37,41.313 39.687,44 43,44 C46.313,44 49,41.313 49,38 C49,34.687 46.313,32 43,32 L43,32 Z" id="Shape" fill="#FFFFFF"></path>
                <path d="M42,55 C42,60.523 37.971,65 33,65 C28.029,65 24,60.523 24,55 L42,55 L42,55 Z" id="Shape" stroke="#B87054" stroke-width="2" fill="#FFFFFF"></path>
            </g>
        </g>
    </g>
</svg>