<?xml version="1.0" encoding="UTF-8" standalone="no"?>
<svg width="500px" height="500px" viewBox="0 0 500 500" version="1.1" xmlns="http://www.w3.org/2000/svg" xmlns:xlink="http://www.w3.org/1999/xlink" xmlns:sketch="http://www.bohemiancoding.com/sketch/ns">
    <!-- Generator: Sketch 3.4.4 (17249) - http://www.bohemiancoding.com/sketch -->
    <title>Group</title>
    <desc>Created with Sketch.</desc>
    <defs></defs>
    <g id="Page-1" stroke="none" stroke-width="1" fill="none" fill-rule="evenodd" sketch:type="MSPage">
        <g id="Group" sketch:type="MSLayerGroup">
            <circle id="Oval" fill="#2C3E50" sketch:type="MSShapeGroup" cx="250" cy="250" r="250"></circle>
            <circle id="Oval" fill="#F0C419" sketch:type="MSShapeGroup" cx="405" cy="150" r="25"></circle>
            <path d="M395,137.5 C407.75,135.25 415.25,127.745 417.5,115 C419.75,127.745 427.25,135.25 440,137.5 C427.25,139.75 419.75,147.25 417.5,160 C415.25,147.25 407.75,139.755 395,137.5 L395,137.5 Z" id="Shape" fill="#FFFFFF" sketch:type="MSShapeGroup"></path>
            <circle id="Oval" opacity="0.6" fill="#FFFFFF" sketch:type="MSShapeGroup" cx="307.5" cy="72.5" r="7.5"></circle>
            <circle id="Oval" opacity="0.2" fill="#FFFFFF" sketch:type="MSShapeGroup" cx="222.5" cy="57.5" r="7.5"></circle>
            <circle id="Oval" opacity="0.6" fill="#FFFFFF" sketch:type="MSShapeGroup" cx="82.5" cy="177.5" r="7.5"></circle>
            <circle id="Oval" opacity="0.3" fill="#FFFFFF" sketch:type="MSShapeGroup" cx="177.5" cy="417.5" r="7.5"></circle>
            <circle id="Oval" opacity="0.4" fill="#FFFFFF" sketch:type="MSShapeGroup" cx="342.5" cy="407.5" r="7.5"></circle>
            <circle id="Oval" opacity="0.6" fill="#FFFFFF" sketch:type="MSShapeGroup" cx="427.5" cy="307.5" r="7.5"></circle>
            <circle id="Oval" fill="#3B97D3" sketch:type="MSShapeGroup" cx="250" cy="250" r="125"></circle>
            <path d="M369.985,285.04 C343.62,329.4 270.715,362.1 239.355,374.515 C242.865,374.815 246.41,375 250,375 C306.865,375 354.83,337.01 369.985,285.04 L369.985,285.04 Z" id="Shape" opacity="0.88" fill="#FFFFFF" sketch:type="MSShapeGroup"></path>
            <path d="M339.705,230 C340.015,190.625 334.475,190.215 299.705,195 C282.675,197.345 267.675,203.595 244.705,215 L194.705,260 C338.005,2.84217094e-14 187.015,245.49 174.705,265 C166.425,278.125 169.705,290 169.705,290 C169.705,290 184.705,273.435 199.705,270 C207.14,268.295 259.86,240.465 259.705,275 C259.565,306.275 200.73,348.565 187.305,358.125 C189.27,359.265 191.265,360.355 193.295,361.39 C201.665,360.105 216.375,355.825 239.7,345.005 C274.395,328.905 339.355,274.115 339.705,230 L339.705,230 Z" id="Shape" opacity="0.88" fill="#FFFFFF" sketch:type="MSShapeGroup"></path>
            <path d="M369.985,285.04 C373.23,273.915 375,262.17 375,250 C375,188.52 330.6,137.445 272.125,126.99 C270.285,127.79 266.36,128.775 259.705,130 C216.06,138.015 175.485,164.375 149.705,205 C144.235,211.25 139.705,230 139.705,230 C139.705,230 138.735,240 144.705,240 C150.675,240 146.46,224.1 154.705,215 C162.675,206.21 179.68,178.08 204.705,165 C220.885,156.32 272.675,143.74 299.705,165 C327.64,187.075 256.31,144.785 219.495,200.775 C210.25,214.835 204.11,191.495 189.705,200 C173.6,209.505 179.395,212.03 159.705,255 C145.28,286.485 156.65,316.265 153.06,328.895 C162.59,340.59 174.195,350.505 187.31,358.125 C200.735,348.565 259.565,306.275 259.71,275 C259.865,240.47 207.145,268.295 199.71,270 C184.71,273.435 169.71,290 169.71,290 C169.71,290 166.43,278.125 174.71,265 C187.02,245.49 194.71,260 194.71,260 C194.71,260 221.74,226.405 244.71,215 C267.68,203.595 282.68,197.345 299.71,195 C334.48,190.215 340.025,190.625 339.71,230 C339.36,274.115 274.4,328.905 239.71,345 C216.38,355.825 201.675,360.1 193.305,361.385 C207.335,368.54 222.89,373.12 239.36,374.51 C270.715,362.1 343.62,329.4 369.985,285.04 L369.985,285.04 Z" id="Shape" fill="#3B97D3" sketch:type="MSShapeGroup"></path>
            <path d="M159.705,255 C179.395,212.03 173.6,209.505 189.705,200 C204.115,191.495 210.25,214.835 219.495,200.775 C256.31,144.785 327.64,187.075 299.705,165 C272.675,143.74 220.885,156.32 204.705,165 C179.68,178.08 162.675,206.21 154.705,215 C146.46,224.1 150.675,240 144.705,240 C138.735,240 139.705,230 139.705,230 C139.705,230 144.235,211.25 149.705,205 C175.485,164.375 216.06,138.015 259.705,130 C266.36,128.78 270.285,127.79 272.125,126.99 C264.94,125.71 257.555,125 250,125 C180.965,125 125,180.965 125,250 C125,279.92 135.525,307.375 153.06,328.895 C156.655,316.265 145.28,286.485 159.705,255 L159.705,255 Z" id="Shape" opacity="0.88" fill="#FFFFFF" sketch:type="MSShapeGroup"></path>
        </g>
    </g>
</svg>