<?xml version="1.0" encoding="UTF-8" standalone="no"?>
<svg width="1025px" height="292px" viewBox="0 0 1025 292" version="1.1" xmlns="http://www.w3.org/2000/svg" xmlns:xlink="http://www.w3.org/1999/xlink" xmlns:sketch="http://www.bohemiancoding.com/sketch/ns">
    <!-- Generator: Sketch 3.4.4 (17249) - http://www.bohemiancoding.com/sketch -->
    <title>Untitled 15</title>
    <desc>Created with Sketch.</desc>
    <defs></defs>
    <g id="Page-1" stroke="none" stroke-width="1" fill="none" fill-rule="evenodd" sketch:type="MSPage">
        <g id="mosquito-net" sketch:type="MSLayerGroup" fill="#000000">
            <g id="Group" sketch:type="MSShapeGroup">
                <path d="M1024.6,17.4 C1024.6,8.2 1017.201,0.799 1008,0.799 L17.4,0.799 C8.2,0.799 0.8,8.199 0.8,17.4 C0.8,24.4 5.8,29.2 11.8,31.599 C12,32.599 12,33.599 12.8,34.2 L66.8,88.2 L27,128 L21.8,122.6 C19.4,120.201 15.4,120.201 13,122.6 C10.6,125 10.6,129 13,131.401 L18.2,136.8 L12.8,142.2 C10.4,144.599 10.4,148.599 12.8,151 C14,152.2 15.6,152.8 17.2,152.8 C18.8,152.8 20.4,152.2 21.6,151 L27,145.6 L67,185.2 L27.2,225 L21.8,219.6 C19.4,217.201 15.4,217.201 13,219.6 C10.6,222 10.6,226 13,228.401 L18.2,233.8 L12.8,239.2 C10.4,241.599 10.4,245.599 12.8,248 C14,249.2 15.6,249.8 17.2,249.8 C18.8,249.8 20.4,249.2 21.6,248 L27,242.6 L67.2,283 C67,283.399 66.6,283.8 66.6,284.399 C66.6,285 67,285.399 67.2,285.799 C67.4,286.799 67.6,287.999 68.4,288.799 C69.6,289.999 71.2,290.599 72.8,290.599 L77.6,290.599 C79.4,290.599 80.8,289.999 82,288.799 C82.4,288.599 82.2,288.199 82.4,287.999 C83.2,286.999 83.8,285.799 83.8,284.398 C83.8,283.999 83.4,283.598 83.2,282.999 L123.8,242.398 L164.4,283 C164.2,283.399 163.8,283.8 163.8,284.399 C163.8,285 164.2,285.399 164.4,285.799 C164.6,286.799 164.8,287.999 165.6,288.799 C166.8,289.999 168.4,290.599 170,290.599 L174.8,290.599 C176.6,290.599 178,289.999 179.2,288.799 C179.6,288.599 179.4,288.199 179.6,287.999 C180.4,286.999 181,285.799 181,284.399 C181,283.999 180.6,283.598 180.4,282.999 L221,242.399 L261.6,282.999 C261.4,283.399 261,283.799 261,284.399 C261,284.999 261.4,285.399 261.6,285.798 C261.8,286.798 262,287.998 262.8,288.798 C264,289.998 265.6,290.598 267.2,290.598 L271.8,290.598 C273.4,290.598 275,289.998 276.2,288.798 C277,287.998 277.2,286.798 277.4,285.798 C277.6,285.399 278,284.998 278,284.399 C278,283.798 277.6,283.598 277.4,282.999 L318.2,242.399 L358.8,282.999 C358.6,283.399 358.2,283.799 358.2,284.399 C358.2,284.999 358.599,285.399 358.8,285.798 C359,286.798 359.2,287.998 360,288.798 C361.2,289.998 362.8,290.598 364.4,290.598 L369.2,290.598 C370.8,290.598 372.399,289.998 373.599,288.798 C373.799,288.598 373.599,288.198 373.799,287.998 C374.599,286.998 375.199,285.798 375.199,284.398 C375.199,283.998 374.799,283.597 374.598,282.998 L415.199,242.398 L455.799,282.998 L455.799,283.198 C455.599,283.597 455.199,283.998 455.199,284.597 C455.199,285.198 455.598,285.597 455.799,285.997 C455.999,286.997 456.199,288.197 456.999,288.997 C458.199,290.197 459.799,290.797 461.399,290.797 L465.999,290.797 C467.599,290.797 469.199,290.197 470.399,288.997 C470.999,288.597 470.999,287.597 471.399,286.997 C471.798,286.197 472.399,285.397 472.399,284.597 C472.399,284.198 471.798,283.797 471.798,283.198 L512.4,242.6 L553,283.2 C552.8,283.599 552.4,284 552.4,284.599 C552.4,285.2 552.799,285.599 553,285.999 C553.2,286.999 553.4,288.199 554.2,288.999 C555.4,290.199 557,290.799 558.599,290.799 L563.4,290.799 C565.2,290.799 566.799,290.199 567.799,288.999 C567.999,288.799 567.999,288.399 568.199,288.199 C568.799,287.199 569.598,285.999 569.598,284.598 C569.598,284.199 569.199,283.798 568.998,283.199 L609.598,242.598 L650.2,283.2 C650,283.6 649.6,284 649.6,284.6 C649.6,286 650.201,287.201 651,288.201 C651.2,288.401 651.2,288.801 651.4,289.001 C652.4,290.001 654,290.801 655.799,290.801 L660.599,290.801 C662.2,290.801 663.799,290.201 664.999,289.001 C665.799,288.201 665.999,287.001 666.199,286.001 C666.399,285.601 666.799,285.201 666.799,284.601 C666.799,284.001 666.4,283.801 666.199,283.202 L706.799,242.601 L747.4,283.2 C747.2,283.8 746.799,284 746.799,284.599 C746.799,287.999 749.599,290.799 752.999,290.799 L757.799,290.799 C761.199,290.799 763.999,287.999 763.999,284.599 C763.999,283.999 763.599,283.799 763.399,283.2 L804,242.6 L844.6,283.201 C844.4,283.6 844,284 844,284.6 C844,285.201 844.4,285.6 844.6,286 C844.8,287 845,288.2 845.8,289 C847,290.2 848.6,290.8 850.2,290.8 L854.8,290.8 C856.6,290.8 858,290.2 859.2,289 C859.599,288.8 859.4,288.4 859.599,288.2 C860.4,287.2 860.999,286 860.999,284.599 C860.999,284.2 860.399,283.799 860.399,283.2 L901,242.6 L941.6,283.6 C941.401,284 941,284.4 941,285 C941,285.6 941.399,286 941.6,286.399 C941.8,287.399 942,288.599 942.8,289.399 C944,290.599 945.6,291.2 947.2,291.2 L952,291.2 C953.8,291.2 955.4,290.599 956.4,289.399 C956.599,289.2 956.599,288.799 956.799,288.599 C957.4,287.599 958.199,286.4 958.199,284.999 C958.199,284.599 957.598,284.199 957.598,283.599 L998.2,243 L1003.8,248.6 C1005,249.8 1006.6,250.4 1008.2,250.4 C1009.8,250.4 1011.4,249.8 1012.599,248.6 C1014.999,246.201 1014.999,242.201 1012.599,239.8 L1007.2,234.2 L1012.599,228.8 C1014.999,226.401 1014.999,222.401 1012.599,220 C1010.2,217.6 1006.2,217.6 1003.799,220 L998.199,225.4 L958.4,185.6 L998.2,145.8 L1003.8,151.2 C1005.2,152.4 1006.6,153 1008.2,153 C1009.8,153 1011.4,152.4 1012.599,151.2 C1014.999,148.8 1014.999,144.8 1012.599,142.4 L1007.2,137 L1012.599,131.4 C1014.999,129 1014.999,125 1012.599,122.599 C1010.2,120.2 1006.2,120.2 1003.799,122.599 L998.199,127.999 L958.399,88.199 L1012.399,34.199 C1012.999,33.598 1012.999,32.799 1012.798,31.999 C1019.4,29.8 1024.6,24.8 1024.6,17.4 L1024.6,17.4 Z M861.2,88.2 L901,48.4 L940.8,88.2 L901,128 L861.2,88.2 L861.2,88.2 Z M892.4,136.8 L852.6,176.6 L812.8,136.8 L852.6,97 L892.4,136.8 L892.4,136.8 Z M818,34.2 L886.6,34.2 L892.201,39.599 L852.4,79.4 L812.6,39.6 L818,34.2 L818,34.2 Z M843.8,88.2 L804,128 L764.2,88.2 L804,48.4 L843.8,88.2 L843.8,88.2 Z M795.2,136.8 L755.4,176.6 L715.6,136.8 L755.4,97 L795.2,136.8 L795.2,136.8 Z M721.2,34.2 L721.2,34.4 L789.8,34.4 L795.2,39.799 L755.4,79.599 L715.6,39.8 L721.2,34.2 L721.2,34.2 Z M746.6,88.2 L706.8,128 L667,88.2 L706.8,48.4 L746.6,88.2 L746.6,88.2 Z M698,136.8 L658.2,176.6 L618.4,136.8 L658.2,97 L698,136.8 L698,136.8 Z M624,34.2 L624,34 L692.4,34 L698,39.6 L658.2,79.4 L618.4,39.6 L624,34.2 L624,34.2 Z M649.4,88.2 L609.6,128 L569.8,88.2 L609.6,48.4 L649.4,88.2 L649.4,88.2 Z M600.8,136.8 L561,176.6 L521.2,136.8 L561,97 L600.8,136.8 L600.8,136.8 Z M527,34.2 L595.6,34.2 L601,39.599 L561.2,79.4 L521.4,39.8 L527,34.2 L527,34.2 Z M552.4,88.2 L512.6,128 L472.8,88.2 L512.6,48.4 L552.4,88.2 L552.4,88.2 Z M503.8,136.8 L464,176.6 L424.2,136.8 L464,97 L503.8,136.8 L503.8,136.8 Z M429.8,34.2 L498.2,34.2 L503.8,39.8 L464,79.6 L424.2,39.8 L429.8,34.2 L429.8,34.2 Z M455.2,88.2 L415.4,128 L375.6,88.2 L415.401,48.4 L455.2,88.2 L455.2,88.2 Z M406.8,136.8 L367,176.6 L327.2,136.8 L367,97 L406.8,136.8 L406.8,136.8 Z M332.6,34.2 L332.6,34 L401.2,34 L406.8,39.6 L367,79.4 L327.2,39.6 L332.6,34.2 L332.6,34.2 Z M358,88.4 L318.4,128 L278.4,88.4 L318.2,48.599 L358,88.4 L358,88.4 Z M309.6,136.8 L269.8,176.6 L230,136.8 L269.8,97 L309.6,136.8 L309.6,136.8 Z M235.6,34.2 L304,34.2 L309.6,39.8 L269.8,79.6 L230,39.8 L235.6,34.2 L235.6,34.2 Z M261,88.4 L221.2,128 L181.4,88.4 L221.2,48.599 L261,88.4 L261,88.4 Z M212.6,136.8 L172.8,176.6 L133,136.8 L172.8,97 L212.6,136.8 L212.6,136.8 Z M138.6,34.2 L207,34.2 L212.6,39.8 L172.8,79.6 L133,39.8 L138.6,34.2 L138.6,34.2 Z M164,88.2 L124.2,128 L84.4,88.2 L124.2,48.4 L164,88.2 L164,88.2 Z M30.4,34 L109.8,34 L115.4,39.6 L75.6,79.4 L30.4,34 L30.4,34 Z M35.8,136.8 L75.6,97 L115.4,136.8 L75.6,176.6 L35.8,136.8 L35.8,136.8 Z M75.6,273.6 L35.8,233.8 L75.6,194 L115.4,233.8 L75.6,273.6 L75.6,273.6 Z M84.4,185.2 L124.2,145.4 L164,185.2 L124.2,225 L84.4,185.2 L84.4,185.2 Z M172.8,273.6 L133,233.8 L172.8,194 L212.4,233.8 L172.8,273.6 L172.8,273.6 Z M181.4,185.2 L221.2,145.4 L261,185.2 L221.2,225 L181.4,185.2 L181.4,185.2 Z M269.8,273.6 L230,233.8 L269.8,194 L309.6,233.8 L269.8,273.6 L269.8,273.6 Z M278.4,185.2 L318.2,145.4 L358,185.2 L318.2,225 L278.4,185.2 L278.4,185.2 Z M366.8,273.6 L327,233.8 L366.8,194 L406.6,233.8 L366.8,273.6 L366.8,273.6 Z M375.6,185.2 L415.401,145.4 L455.201,185.2 L415.4,225 L375.6,185.2 L375.6,185.2 Z M464,273.6 L424.2,233.8 L464,194 L503.8,233.8 L464,273.6 L464,273.6 Z M472.8,185.2 L512.6,145.4 L552.401,185.2 L512.6,225 L472.8,185.2 L472.8,185.2 Z M561,273.6 L521.2,233.8 L561,194 L600.8,233.8 L561,273.6 L561,273.6 Z M569.8,185.2 L609.6,145.4 L649.401,185.2 L609.6,225 L569.8,185.2 L569.8,185.2 Z M658.2,273.6 L618.4,233.8 L658.2,194 L698,233.8 L658.2,273.6 L658.2,273.6 Z M667,185.2 L706.8,145.4 L746.6,185.2 L706.8,225 L667,185.2 L667,185.2 Z M755.4,273.6 L715.6,233.8 L755.4,194 L795,233.8 L755.4,273.6 L755.4,273.6 Z M764.2,185.2 L804,145.4 L843.8,185.2 L804,225 L764.2,185.2 L764.2,185.2 Z M852.2,273.6 L812.6,233.8 L852.4,194 L892.2,233.8 L852.2,273.6 L852.2,273.6 Z M861.2,185.4 L901,145.6 L940.8,185.201 L901,225 L861.2,185.4 L861.2,185.4 Z M989.4,233.8 L949.6,273.6 L909.8,233.8 L949.6,194 L989.4,233.8 L989.4,233.8 Z M989.4,136.8 L949.6,176.6 L909.8,136.8 L949.6,97 L989.4,136.8 L989.4,136.8 Z M949.4,79.6 L909.6,39.8 L915.201,34.2 L994.801,34.2 L949.4,79.6 L949.4,79.6 Z" id="Shape"></path>
            </g>
        </g>
    </g>
</svg>