<?xml version="1.0" encoding="UTF-8" standalone="no"?>
<svg width="506px" height="164px" viewBox="0 0 506 164" version="1.1" xmlns="http://www.w3.org/2000/svg" xmlns:xlink="http://www.w3.org/1999/xlink" xmlns:sketch="http://www.bohemiancoding.com/sketch/ns">
    <!-- Generator: Sketch 3.4.4 (17249) - http://www.bohemiancoding.com/sketch -->
    <title>Untitled 9</title>
    <desc>Created with Sketch.</desc>
    <defs></defs>
    <g id="Page-1" stroke="none" stroke-width="1" fill="none" fill-rule="evenodd" sketch:type="MSPage">
        <g id="forest" sketch:type="MSLayerGroup">
            <g id="Page-1" sketch:type="MSShapeGroup">
                <g id="Group" transform="translate(250.000000, 54.000000)">
                    <path d="M29.434,72.466 L29.434,109.679 L21.991,109.182 L21,68 L29.434,72.466" id="Fill-63" fill="#AA5258"></path>
                    <path d="M32.213,0 C19.485,18.995 11,41.36 11,41.36 L22.03,32.781 L22.879,42.279 L28.818,34.007 L34.334,40.747 L34.334,33.7 L44.304,42.126 L42.394,37.683 C42.394,37.683 31.363,7.659 32.213,0 L32.213,0 Z" id="Fill-64" fill="#019875"></path>
                    <path d="M44.715,57.07 C44.715,57.07 31.815,21.958 32.807,13 C17.923,35.215 8,61.371 8,61.371 L20.9,51.338 L21.891,62.445 L28.838,52.771 L35.288,60.654 L35.288,52.413 L46.948,62.266 L44.715,57.07" id="Fill-65" fill="#019875"></path>
                    <path d="M45.136,82.175 C45.136,82.175 29.278,39.011 30.496,28 C12.199,55.308 0,87.462 0,87.462 L15.86,75.128 L17.078,88.782 L25.618,76.891 L33.547,86.58 L33.547,76.45 L47.881,88.563 L45.136,82.175" id="Fill-66" fill="#019875"></path>
                </g>
                <g id="Group" transform="translate(159.000000, 0.000000)">
                    <path d="M42.542,108.641 L42.542,163.976 L31.474,163.237 L30,102 L42.542,108.641" id="Fill-67" fill="#AA5258"></path>
                    <path d="M61.684,56.035 C61.684,56.035 45.281,11.389 46.543,0 C27.618,28.245 15,61.502 15,61.502 L31.402,48.746 L32.664,62.868 L41.496,50.568 L49.698,60.591 L49.698,50.113 L64.522,62.641 L61.684,56.035" id="Fill-68" fill="#019875"></path>
                    <path d="M47.89,20 C25.755,53.033 11,91.927 11,91.927 L30.183,77.008 L31.658,93.525 L41.987,79.139 L51.578,90.861 L51.578,78.607 L68.916,93.258 L65.596,85.532 C65.596,85.532 46.414,33.32 47.89,20 Z" id="Fill-69" fill="#019875"></path>
                    <path d="M67.115,122.56 C67.115,122.56 43.535,58.375 45.348,42 C18.139,82.608 0,130.42 0,130.42 L23.581,112.08 L25.394,132.384 L38.093,114.701 L49.883,129.11 L49.883,114.046 L71.197,132.057 L67.115,122.56 L40.4528991,103.07987" id="Fill-70" fill="#019875"></path>
                    <path d="M4.50364501,122.789 C4.25364501,122.789 3.92664501,122.415 4.01464501,122.268 C4.06164501,122.189 4.12864501,122.157 4.20164501,122.157 C4.45164501,122.157 4.77964501,122.532 4.69164501,122.678 C4.64464501,122.757 4.57764501,122.789 4.50364501,122.789 M25.592645,97.862 L25.184645,96.232 L26.267645,95.96 C26.725645,97.006 26.582645,97.687 25.592645,97.862 M54.260645,97.595 C53.729645,97.595 53.927645,97.121 54.215645,97.052 C54.245645,97.049 54.274645,97.048 54.301645,97.048 C54.838645,97.048 54.638645,97.524 54.349645,97.591 C54.318645,97.594 54.288645,97.595 54.260645,97.595 M30.698645,77.629 C30.448645,77.629 30.122645,77.256 30.211645,77.112 C30.258645,77.032 30.325645,77 30.398645,77 C30.647645,77 30.974645,77.373 30.887645,77.517 C30.839645,77.597 30.772645,77.629 30.698645,77.629" id="Fill-121" fill="#D6AA96"></path>
                </g>
                <g id="Group">
                    <path d="M29,108.641 L29,163.976 L40.066,163.238 L41.541,102 L29,108.641" id="Fill-59" fill="#AA5258"></path>
                    <path d="M23.979,0 C42.904,28.245 55.523,61.502 55.523,61.502 L39.12,48.746 L37.858,62.868 L29.026,50.568 L20.824,60.591 L20.824,50.113 L6,62.641 L8.839,56.035 C8.839,56.035 25.242,11.389 23.979,0 L23.979,0 Z" id="Fill-60" fill="#1E824C"></path>
                    <path d="M5.321,86.532 C5.321,86.532 24.503,34.32 23.028,21 C45.162,54.033 59.917,92.927 59.917,92.927 L40.734,78.008 L39.259,94.525 L28.931,80.139 L19.339,91.861 L19.339,79.607 L2,94.258 L5.321,86.532" id="Fill-61" fill="#1E824C"></path>
                    <path d="M4.082,122.56 C4.082,122.56 27.663,58.375 25.849,42 C53.058,82.608 71.197,130.42 71.197,130.42 L47.616,112.08 L45.802,132.384 L33.105,114.701 L21.314,129.11 L21.314,114.046 L0,132.057 L4.082,122.56" id="Fill-62" fill="#1E824C"></path>
                </g>
                <g id="Group" transform="translate(98.000000, 53.000000)">
                    <path d="M20,73.465 L20,110.678 L27.443,110.181 L28.434,69 L20,73.465" id="Fill-55" fill="#AA5258"></path>
                    <path d="M17.8171208,0 C31.3084363,18.995 40.303,41.36 40.303,41.36 L28.6105972,32.781 L27.7116709,42.279 L21.4149463,34.007 L15.5676848,40.747 L15.5676848,33.7 L5,42.126 L7.02258427,37.683 C7.02258427,37.683 18.7171072,7.659 17.8171208,0 L17.8171208,0 Z" id="Fill-56" fill="#1E824C"></path>
                    <path d="M4.233,58.07 C4.233,58.07 17.133,22.958 16.141,14 C31.026,36.215 40.949,62.371 40.949,62.371 L28.049,52.338 L27.057,63.445 L20.11,53.771 L13.66,61.654 L13.66,53.413 L2,63.266 L4.233,58.07" id="Fill-57" fill="#1E824C"></path>
                    <path d="M2.744,82.176 C2.744,82.176 18.603,39.011 17.383,28 C35.681,55.308 47.88,87.462 47.88,87.462 L32.021,75.128 L30.802,88.782 L22.262,76.891 L14.333,86.58 L14.333,76.45 L0,88.563 L2.744,82.176" id="Fill-58" fill="#1E824C"></path>
                    <path d="M27.1034288,89.703 C26.9994288,89.703 26.6634288,89.527 26.3894288,89.351 C26.1154288,89.175 25.9034288,89 26.0454288,89 C26.1254288,89 26.3144288,89.054 26.6634288,89.193 C27.1114288,89.571 27.1944288,89.703 27.1034288,89.703" id="Fill-116" fill="#AA5258"></path>
                </g>
                <g id="Group" transform="translate(310.000000, 53.000000)">
                    <path d="M29.434,73.466 L29.434,110.679 L21.991,110.182 L21,69 L29.434,73.466" id="Fill-63" fill="#AA5258"></path>
                    <path d="M31.3339996,0.7578125 C25.8180008,22.0184059 8,42.36 8,42.36 L19.03,33.781 L19.879,43.279 L25.818,35.007 L31.334,41.747 L31.334,34.7 L41.304,43.126 L39.394,38.683 C39.394,38.683 30.4839996,8.4168125 31.3339996,0.7578125 L31.3339996,0.7578125 Z" id="Fill-64" fill="#1E824C"></path>
                    <path d="M32.807,14 C17.923,36.215 8,62.371 8,62.371 L20.9,52.338 L21.891,63.445 L28.838,53.771 L35.288,61.654 L35.288,53.413 L46.948,63.266 L44.715,58.07 C44.715,58.07 31.815,22.958 32.807,14 L32.807,14 Z" id="Fill-65" fill="#1E824C"></path>
                    <path d="M45.136,83.175 C45.136,83.175 29.278,40.011 30.496,29 C12.199,56.308 0,88.462 0,88.462 L15.86,76.128 L17.078,89.782 L25.618,77.891 L33.547,87.58 L33.547,77.45 L47.881,89.563 L45.136,83.175" id="Fill-66" fill="#1E824C"></path>
                </g>
                <g id="Group" transform="translate(390.000000, 30.000000)">
                    <path d="M29,78.641 L29,133.976 L40.066,133.238 L41.541,72 L29,78.641" id="Fill-59" fill="#AA5258"></path>
                    <path d="M23.979,0 C42.904,28.245 55.523,61.502 55.523,61.502 L39.12,48.746 L37.858,62.868 L29.026,50.568 L20.824,60.591 L20.824,50.113 L6,62.641 L8.839,56.035 C8.839,56.035 25.242,11.389 23.979,0 L23.979,0 Z" id="Fill-60" fill="#1E824C"></path>
                    <path d="M5.321,76.532 C5.321,76.532 24.503,24.32 23.028,11 C45.162,44.033 59.917,82.927 59.917,82.927 L40.734,68.008 L39.259,84.525 L28.931,70.139 L19.339,81.861 L19.339,69.607 L2,84.258 L5.321,76.532" id="Fill-61" fill="#1E824C"></path>
                    <path d="M25.849,12 C53.058,52.608 71.197,100.42 71.197,100.42 L47.616,82.08 L45.802,102.384 L33.105,84.701 L21.314,99.11 L21.314,84.046 L0,102.057 L4.082,92.56 C4.082,92.56 27.663,28.375 25.849,12 L25.849,12 Z" id="Fill-62" fill="#1E824C"></path>
                </g>
                <g id="Group" transform="translate(458.000000, 53.000000)">
                    <path d="M20,73.465 L20,110.678 L27.443,110.181 L28.434,69 L20,73.465" id="Fill-55" fill="#AA5258"></path>
                    <path d="M7.02258427,37.683 C7.02258427,37.683 18.7171072,7.659 17.8171208,0 C31.3084363,18.995 40.303,41.36 40.303,41.36 L28.6105972,32.781 L27.7116709,42.279 L21.4149463,34.007 L15.5676848,40.747 L15.5676848,33.7 L5,42.126 L7.02258427,37.683" id="Fill-56" fill="#019875"></path>
                    <path d="M4.233,58.07 C4.233,58.07 17.133,22.958 16.141,14 C31.026,36.215 40.949,62.371 40.949,62.371 L28.049,52.338 L27.057,63.445 L20.11,53.771 L13.66,61.654 L13.66,53.413 L2,63.266 L4.233,58.07" id="Fill-57" fill="#019875"></path>
                    <path d="M2.744,82.176 C2.744,82.176 18.603,39.011 17.383,28 C35.681,55.308 47.88,87.462 47.88,87.462 L32.021,75.128 L30.802,88.782 L22.262,76.891 L14.333,86.58 L14.333,76.45 L0,88.563 L2.744,82.176" id="Fill-58" fill="#019875"></path>
                    <path d="M27.1034288,89.703 C26.9994288,89.703 26.6634288,89.527 26.3894288,89.351 C26.1154288,89.175 25.9034288,89 26.0454288,89 C26.1254288,89 26.3144288,89.054 26.6634288,89.193 C27.1114288,89.571 27.1944288,89.703 27.1034288,89.703" id="Fill-116" fill="#AA5258"></path>
                </g>
                <g id="Group" transform="translate(339.000000, 0.000000)">
                    <path d="M42.542,108.641 L42.542,163.976 L31.474,163.237 L30,102 L42.542,108.641" id="Fill-67" fill="#AA5258"></path>
                    <path d="M61.684,56.035 C61.684,56.035 45.281,11.389 46.543,0 C27.618,28.245 15,61.502 15,61.502 L31.402,48.746 L32.664,62.868 L41.496,50.568 L49.698,60.591 L49.698,50.113 L64.522,62.641 L61.684,56.035" id="Fill-68" fill="#019875"></path>
                    <path d="M65.596,85.532 C65.596,85.532 46.414,33.32 47.89,20 C25.755,53.033 11,91.927 11,91.927 L30.183,77.008 L31.658,93.525 L41.987,79.139 L51.578,90.861 L51.578,78.607 L68.916,93.258 L65.596,85.532" id="Fill-69" fill="#019875"></path>
                    <path d="M45.348,42 C18.139,82.608 0,130.42 0,130.42 L23.581,112.08 L25.394,132.384 L38.093,114.701 L49.883,129.11 L49.883,114.046 L71.197,132.057 L67.115,122.56 C67.115,122.56 43.535,58.375 45.348,42 L45.348,42 Z" id="Fill-70" fill="#019875"></path>
                    <path d="M4.50364501,122.789 C4.25364501,122.789 3.92664501,122.415 4.01464501,122.268 C4.06164501,122.189 4.12864501,122.157 4.20164501,122.157 C4.45164501,122.157 4.77964501,122.532 4.69164501,122.678 C4.64464501,122.757 4.57764501,122.789 4.50364501,122.789 M25.592645,97.862 L25.184645,96.232 L26.267645,95.96 C26.725645,97.006 26.582645,97.687 25.592645,97.862 M54.260645,97.595 C53.729645,97.595 53.927645,97.121 54.215645,97.052 C54.245645,97.049 54.274645,97.048 54.301645,97.048 C54.838645,97.048 54.638645,97.524 54.349645,97.591 C54.318645,97.594 54.288645,97.595 54.260645,97.595 M30.698645,77.629 C30.448645,77.629 30.122645,77.256 30.211645,77.112 C30.258645,77.032 30.325645,77 30.398645,77 C30.647645,77 30.974645,77.373 30.887645,77.517 C30.839645,77.597 30.772645,77.629 30.698645,77.629" id="Fill-121" fill="#019875"></path>
                </g>
            </g>
        </g>
    </g>
</svg>