<?xml version="1.0" encoding="UTF-8" standalone="no"?>
<svg width="150px" height="150px" viewBox="0 0 150 150" version="1.1" xmlns="http://www.w3.org/2000/svg" xmlns:xlink="http://www.w3.org/1999/xlink" xmlns:sketch="http://www.bohemiancoding.com/sketch/ns">
    <!-- Generator: Sketch 3.4.4 (17249) - http://www.bohemiancoding.com/sketch -->
    <title>Untitled 3</title>
    <desc>Created with Sketch.</desc>
    <defs>
        <circle id="path-1" cx="75" cy="75" r="75"></circle>
    </defs>
    <g id="Page-1" stroke="none" stroke-width="1" fill="none" fill-rule="evenodd" sketch:type="MSPage">
        <g id="flask" sketch:type="MSLayerGroup">
            <path d="M75,0 C116.4195,0 150,33.579 150,75 C150,116.421 116.4195,150 75,150 C33.579,150 0,116.421 0,75 C0,33.579 33.579,0 75,0 L75,0 Z" id="Shape" fill="#34495E" sketch:type="MSShapeGroup"></path>
            <g id="Clipped">
                <mask id="mask-2" sketch:name="a" fill="white">
                    <use xlink:href="#path-1"></use>
                </mask>
                <g id="a"></g>
                <g id="Group" mask="url(#mask-2)" sketch:type="MSShapeGroup">
                    <g transform="translate(24.000000, 31.500000)" id="Shape">
                        <path d="M64.5,45.3195 L64.5,10.5 L37.5,10.5 L37.5,45.3195 C15.888,51.24 0,71.01 0,94.5 C0,122.6655 22.833,145.5 51,145.5 C79.1655,145.5 102,122.6655 102,94.5 C102,71.01 86.112,51.24 64.5,45.3195 L64.5,45.3195 Z" fill="#ECF0F1"></path>
                        <path d="M86.4585,73.5 L15.543,73.5 C11.406,80.0055 9,87.7185 9,96 C9,119.196 27.804,138 51,138 C74.196,138 93,119.196 93,96 C93,87.7185 90.594,80.0055 86.4585,73.5 L86.4585,73.5 Z" fill="#2980B9"></path>
                        <path d="M76.6395,64.8075 C90.801,71.589 90.7995,82.5855 76.6395,89.3655 C62.4825,96.147 39.5235,96.147 25.362,89.3655 C11.2035,82.5855 11.2035,71.5905 25.362,64.8075 C39.522,58.026 62.478,58.026 76.6395,64.8075 Z" fill="#509CCF"></path>
                        <path d="M37.515,7.116 L64.3485,7.116 L64.4415,19.3935 L63.5985,19.845 C56.5665,23.361 45.294,23.361 38.265,19.845 L37.4895,19.434 L37.515,7.116 L37.515,7.116 Z" fill="#BDC3C7"></path>
                        <path d="M38.265,4.116 C45.2955,0.6 56.6925,0.6 63.7245,4.116 C70.7535,7.6305 70.7535,13.3305 63.7245,16.8435 C56.6925,20.3595 45.294,20.3595 38.265,16.8435 C31.236,13.3305 31.236,7.6305 38.265,4.116 L38.265,4.116 Z" fill="#FFFFFF"></path>
                        <path d="M44.625,8.3715 C48.1305,7.2015 53.814,7.2015 57.321,8.3715 C60.825,9.543 60.825,11.4435 57.321,12.615 C53.814,13.7865 48.1305,13.7865 44.625,12.615 C41.121,11.4435 41.121,9.543 44.625,8.3715 L44.625,8.3715 Z" fill="#BDC3C7"></path>
                        <path d="M38.25,73.5 C34.53,73.5 31.5135,76.512 31.5015,80.229 C31.4895,80.811 32.142,81.39 33.4695,81.834 C36.099,82.713 40.362,82.713 42.9915,81.834 C44.3025,81.3975 44.9595,80.8215 44.9625,80.247 L45,80.247 C45,76.524 41.9775,73.5 38.25,73.5 L38.25,73.5 Z M55.5,67.5 C53.019,67.5 51.009,69.4965 51.0015,71.9655 C50.9925,72.3495 51.4275,72.738 52.3125,73.029 C54.066,73.614 56.9055,73.614 58.6605,73.029 C59.5335,72.741 59.973,72.36 59.973,71.9775 L60,71.9775 C60,69.504 57.984,67.5 55.5,67.5 L55.5,67.5 Z M67.5,76.5 C65.022,76.5 63.0105,78.4965 63.0015,80.9625 C62.9925,81.3495 63.4275,81.7365 64.3125,82.029 C66.066,82.614 68.9055,82.614 70.6605,82.029 C71.5335,81.741 71.97,81.36 71.973,80.9775 L72,80.9775 C72,78.504 69.984,76.5 67.5,76.5 L67.5,76.5 Z" fill-opacity="0.2" fill="#2980B9"></path>
                        <path d="M58.6605,72.654 C56.9055,73.239 54.066,73.239 52.3125,72.654 C51.5085,72.387 51.0945,72.045 51.03,71.694 L51.0015,71.9655 C50.9925,72.3495 51.4275,72.738 52.3125,73.029 C54.066,73.614 56.9055,73.614 58.6605,73.029 C59.5335,72.741 59.973,72.36 59.973,71.9775 L60,71.9775 L59.9655,71.6355 C59.9385,72.0045 59.511,72.372 58.6605,72.654 L58.6605,72.654 Z M42.9915,81.4635 C40.362,82.3425 36.099,82.3425 33.4695,81.4635 C32.223,81.045 31.5945,80.505 31.53,79.9605 L31.5015,80.2305 C31.4895,80.814 32.142,81.393 33.4695,81.8385 C36.099,82.7175 40.362,82.7175 42.9915,81.8385 C44.3025,81.399 44.9595,80.8245 44.9625,80.25 L45,80.25 L44.9625,79.875 C44.958,80.4495 44.3025,81.024 42.9915,81.4635 L42.9915,81.4635 Z M70.6605,81.654 C68.9055,82.239 66.066,82.239 64.3125,81.654 C63.51,81.3855 63.096,81.045 63.03,80.6925 L63.0015,80.9625 C62.9925,81.3495 63.4275,81.7365 64.3125,82.029 C66.066,82.614 68.9055,82.614 70.6605,82.029 C71.5335,81.741 71.97,81.36 71.973,80.9775 L72,80.9775 L71.9655,80.634 C71.94,81.003 71.511,81.372 70.6605,81.654 L70.6605,81.654 Z" fill="#2980B9"></path>
                    </g>
                </g>
            </g>
        </g>
    </g>
</svg>