<?xml version="1.0" encoding="UTF-8" standalone="no"?>
<svg width="150px" height="100px" viewBox="0 0 150 100" version="1.1" xmlns="http://www.w3.org/2000/svg" xmlns:xlink="http://www.w3.org/1999/xlink" xmlns:sketch="http://www.bohemiancoding.com/sketch/ns">
    <!-- Generator: Sketch 3.4.4 (17249) - http://www.bohemiancoding.com/sketch -->
    <title>Untitled 4</title>
    <desc>Created with Sketch.</desc>
    <defs></defs>
    <g id="Page-1" stroke="none" stroke-width="1" fill="none" fill-rule="evenodd" sketch:type="MSPage">
        <g id="Hamburger" sketch:type="MSLayerGroup">
            <g id="_501420536" transform="translate(0.716089, 0.190168)" sketch:type="MSShapeGroup">
                <path d="M7.94796697,72.1618813 L140.761324,72.1618813 L140.761324,85.8972029 C140.761324,93.4464854 134.588146,99.6325244 127.026003,99.6325244 L21.6704277,99.6325244 C14.1211452,99.6325244 7.93510618,93.4593462 7.93510618,85.8972029 L7.93510618,72.1618813 L7.94796697,72.1618813 Z" id="Shape" fill="#E6762B"></path>
                <rect id="Rectangle-path" fill="#5E2A0D" x="0.488709943" y="57.3848359" width="147.744732" height="14.7770454" rx="574"></rect>
                <rect id="Rectangle-path" fill="#FFCC00" x="7.87080224" y="48.1250686" width="132.967687" height="9.25976734"></rect>
                <path d="M7.87080224,57.3848359 L24.7184345,57.3848359 L65.7314873,79.5053912 L70.785777,91.2730122 L126.447267,54.2339429 L140.838489,57.3848359 L65.204195,52.0733305 L58.6709147,51.3917087 L7.87080224,57.3848359 Z" id="Shape" fill="#FFCC00"></path>
                <path d="M7.87080224,48.1250686 C39.611227,57.1147594 62.0018588,67.8535173 70.5028397,81.2030153 L70.7729162,91.2730122 C59.5840307,75.3513567 32.2934386,62.233353 7.87080224,57.3848359 L7.87080224,48.1250686 L7.87080224,48.1250686 Z" id="Shape" fill="#FFDA45"></path>
                <path d="M70.5157004,81.2030153 C101.35587,58.9924344 124.170908,48.9224374 140.85135,48.1250686 L140.85135,57.3848359 C121.444421,57.3848359 93.3050167,78.5151106 70.7986378,91.2730122 L70.5285612,81.2030153 L70.5157004,81.2030153 Z" id="Shape" fill="#E0B300"></path>
                <path d="M5.72305065,42.9550318 C5.72305065,51.3274048 2.70076547,55.2499451 12.6935977,49.5268945 C16.2688968,47.4820292 19.5226761,52.4848757 25.5929681,50.5171752 C27.1619842,50.0027436 30.994499,49.7583887 32.0105013,51.070189 C35.7144082,55.8544022 38.453756,56.6389102 44.3825793,53.1150543 C52.0476089,48.5623354 43.9453125,49.8226926 58.1050401,53.2308014 C65.4742716,55.0055902 70.2842063,47.0447624 72.2776284,51.7646716 C73.512264,54.6969312 78.4765282,53.8095369 81.0101034,52.4591541 C84.1738573,50.7743909 88.8809057,49.2568179 92.0446595,51.4688735 C96.7517079,54.7483744 101.072933,49.8484142 106.680236,49.7326671 C113.650783,49.5911984 110.834271,51.6360637 114.358127,51.4302911 C117.174639,51.2631009 117.599045,47.8292705 124.312377,49.2696787 C126.151469,49.6683631 128.054866,51.3917087 131.900241,51.3917087 C136.45296,51.3917087 134.433817,48.4465883 141.944517,49.3339827 C143.2949,49.4883121 143.616419,44.6783774 143.616419,42.942171 L5.73591144,42.942171 L5.72305065,42.9550318 Z" id="Shape" fill="#00C700"></path>
                <rect id="Rectangle-path" fill="#FF5630" x="11.9862544" y="36.9747654" width="125.765646" height="5.99312719"></rect>
                <path d="M45.9001523,0 L101.240123,0 C118.846542,0 139.951095,14.9956788 147.667567,28.5638101 C148.825038,30.6086754 148.825038,32.936478 147.628985,34.9813433 C146.445793,37.0133478 144.426649,38.1836795 142.073125,38.1836795 L6.46897635,38.1836795 C4.14117373,38.1836795 2.14775159,37.0519301 0.95169831,35.058508 C-0.244354971,33.0650859 -0.308658911,30.7758656 0.784508066,28.7310003 C8.02513169,15.1242867 28.203708,0.012860788 45.8872915,0.012860788 L45.9001523,0 Z" id="Shape" fill="#F5914F"></path>
                <path d="M115.335547,19.715588 C116.081472,19.2525996 117.560463,19.8699174 118.627908,21.1174138 C119.695354,22.3520495 119.96543,23.7410146 119.219504,24.2168638 C118.473579,24.6798521 116.994588,24.0625343 115.927143,22.8150379 C114.859697,21.5804022 114.589621,20.1914371 115.335547,19.715588 L115.335547,19.715588 Z M116.750233,10.4429598 C117.367551,9.85136359 118.962289,10.1986049 120.312671,11.2274679 C121.663054,12.2563309 122.25465,13.5552705 121.650193,14.1468668 C121.032876,14.738463 119.438138,14.3912217 118.087755,13.3623587 C116.737372,12.3334957 116.145776,11.0345561 116.750233,10.4429598 L116.750233,10.4429598 Z M132.337508,20.4615137 C133.083434,19.9985253 134.562425,20.6158431 135.62987,21.8633396 C136.697315,23.0979752 136.967392,24.4869403 136.221466,24.9627895 C135.47554,25.4257778 133.99655,24.80846 132.929104,23.5609636 C131.861659,22.3263279 131.591583,20.9373628 132.337508,20.4615137 L132.337508,20.4615137 Z M100.558501,12.3849388 C101.304427,11.9219504 102.783417,12.5392683 103.850863,13.7867647 C104.918308,15.0214004 105.188385,16.4103655 104.442459,16.8862146 C103.696533,17.349203 102.217543,16.7318852 101.150097,15.4843887 C100.082652,14.2497531 99.8125754,12.860788 100.558501,12.3849388 L100.558501,12.3849388 Z M98.8351556,21.3360472 C99.7225499,21.0916923 100.880021,22.0819729 101.433035,23.5609636 C101.986049,25.0270934 101.715972,26.4160585 100.841438,26.6604135 C99.9540441,26.9047684 98.7965732,25.9144878 98.2435593,24.4354971 C97.6905454,22.9693673 97.960622,21.5804022 98.8351556,21.3360472 L98.8351556,21.3360472 Z M101.754554,4.91282101 C102.281847,4.26978161 103.915167,4.46269343 105.394157,5.3500878 C106.873148,6.23748217 107.644795,7.4849786 107.104642,8.128018 C106.57735,8.7710574 104.94403,8.57814558 103.465039,7.69075121 C101.986049,6.80335684 101.214401,5.5558604 101.754554,4.91282101 L101.754554,4.91282101 Z M88.5336644,7.27920599 C89.408198,7.02199023 90.5913905,7.99941012 91.1829867,9.45267916 C91.7617222,10.9059482 91.530228,12.2949133 90.6556944,12.5521291 C89.7811608,12.8093448 88.5979683,11.8319249 88.0063721,10.3786559 C87.4276366,8.92538685 87.6591308,7.53642175 88.5336644,7.27920599 L88.5336644,7.27920599 Z M37.7592735,19.715588 C37.0133478,19.2525996 35.5343572,19.8699174 34.4669118,21.1174138 C33.3994664,22.3520495 33.1293898,23.7410146 33.8753155,24.2168638 C34.6212412,24.6798521 36.1002318,24.0625343 37.1676772,22.8150379 C38.2351226,21.5804022 38.5051992,20.1914371 37.7592735,19.715588 L37.7592735,19.715588 Z M36.3445868,10.4429598 C35.727269,9.85136359 34.1325313,10.1986049 32.7821485,11.2274679 C31.4317658,12.2563309 30.8401696,13.5552705 31.4446266,14.1468668 C32.0619444,14.738463 33.6566821,14.3912217 35.0070649,13.3623587 C36.3574476,12.3334957 36.9490438,11.0345561 36.3445868,10.4429598 L36.3445868,10.4429598 Z M20.7573118,20.4615137 C20.0113861,19.9985253 18.5323955,20.6158431 17.4649501,21.8633396 C16.3975047,23.0979752 16.1274281,24.4869403 16.8733538,24.9627895 C17.6192795,25.4257778 19.0982701,24.80846 20.1657155,23.5609636 C21.2331609,22.3263279 21.5032375,20.9373628 20.7573118,20.4615137 L20.7573118,20.4615137 Z M52.5363189,12.3849388 C51.7903932,11.9219504 50.3114025,12.5392683 49.2439571,13.7867647 C48.1765117,15.0214004 47.9064352,16.4103655 48.6523609,16.8862146 C49.3982866,17.349203 50.8772772,16.7318852 51.9447226,15.4843887 C53.012168,14.2497531 53.2822446,12.860788 52.5363189,12.3849388 L52.5363189,12.3849388 Z M54.2596645,21.3360472 C53.3722701,21.0916923 52.2147992,22.0819729 51.6617853,23.5609636 C51.1087714,25.0270934 51.3788479,26.4160585 52.2533815,26.6604135 C53.1407759,26.9047684 54.2982468,25.9144878 54.8512607,24.4354971 C55.4042746,22.9693673 55.134198,21.5804022 54.2596645,21.3360472 L54.2596645,21.3360472 Z M51.3402656,4.91282101 C50.8129733,4.26978161 49.1796532,4.46269343 47.7006626,5.3500878 C46.221672,6.23748217 45.4500247,7.4849786 45.9901778,8.128018 C46.5174701,8.7710574 48.1507902,8.57814558 49.6297808,7.69075121 C51.1087714,6.80335684 51.8804187,5.5558604 51.3402656,4.91282101 L51.3402656,4.91282101 Z M64.5611556,7.27920599 C63.686622,7.02199023 62.5034295,7.99941012 61.9118333,9.45267916 C61.3330978,10.9059482 61.564592,12.2949133 62.4391256,12.5521291 C63.3136592,12.8093448 64.4968517,11.8319249 65.0884479,10.3786559 C65.6671834,8.92538685 65.4356892,7.53642175 64.5611556,7.27920599 L64.5611556,7.27920599 Z M70.9015241,22.506379 C71.8275008,22.506379 72.5734265,21.2588825 72.5734265,19.715588 C72.5734265,18.1722934 71.8275008,16.924797 70.9015241,16.924797 C69.9755474,16.924797 69.2296217,18.1722934 69.2296217,19.715588 C69.2296217,21.2588825 69.9755474,22.506379 70.9015241,22.506379 L70.9015241,22.506379 Z M77.9235143,10.9316698 C78.8494911,10.9316698 79.5954168,9.68417334 79.5954168,8.14087879 C79.5954168,6.59758423 78.8494911,5.3500878 77.9235143,5.3500878 C76.9975376,5.3500878 76.2516119,6.59758423 76.2516119,8.14087879 C76.2516119,9.68417334 76.9975376,10.9316698 77.9235143,10.9316698 L77.9235143,10.9316698 Z M83.3507668,26.5189448 C84.2767436,26.5189448 85.0226693,25.2714484 85.0226693,23.7281538 C85.0226693,22.1848593 84.2767436,20.9373628 83.3507668,20.9373628 C82.4247901,20.9373628 81.6788644,22.1848593 81.6788644,23.7281538 C81.6788644,25.2714484 82.4247901,26.5189448 83.3507668,26.5189448 L83.3507668,26.5189448 Z" id="Shape" fill="#FFC87A"></path>
            </g>
        </g>
    </g>
</svg>