<?xml version="1.0" encoding="UTF-8" standalone="no"?>
<svg width="591px" height="174px" viewBox="0 0 591 174" version="1.1" xmlns="http://www.w3.org/2000/svg" xmlns:xlink="http://www.w3.org/1999/xlink" xmlns:sketch="http://www.bohemiancoding.com/sketch/ns">
    <!-- Generator: Sketch 3.4.4 (17249) - http://www.bohemiancoding.com/sketch -->
    <title>Untitled 11</title>
    <desc>Created with Sketch.</desc>
    <defs></defs>
    <g id="Page-1" stroke="none" stroke-width="1" fill="none" fill-rule="evenodd" sketch:type="MSPage">
        <path d="M262,86.91 L368.71,86.91 C368.47,77.19 360.52,69.38 350.74,69.38 C348.77,69.38 346.88,69.71 345.11,70.3 C342.66,60.37 333.7,53 323.01,53 C311.04,53 301.23,62.26 300.33,74 C299.4,73.83 298.44,73.73 297.46,73.73 C291.91,73.73 287.04,76.61 284.23,80.95 C281.92,78.1 278.4,76.27 274.44,76.27 C268.15,76.27 262.93,80.88 262,86.91" id="Fill-340" fill="#C5E0DF" sketch:type="MSShapeGroup"></path>
        <path d="M590.1,140.35 L443,140.35 C443.49,133.06 449.55,127.3 456.96,127.3 C461.38,127.3 465.32,129.36 467.89,132.56 C471.76,126.35 478.64,122.22 486.49,122.22 C491.45,122.22 496.02,123.87 499.69,126.64 C502.81,116.98 511.87,110 522.56,110 C533.11,110 542.06,116.8 545.3,126.25 C548.45,123.26 552.71,121.41 557.41,121.41 C564.03,121.41 569.79,125.07 572.8,130.46 C574.66,128.34 577.39,126.99 580.44,126.99 C586.06,126.99 590.61,131.55 590.61,137.17 C590.61,138.28 590.43,139.35 590.1,140.35 Z" id="Fill-341" fill="#C5E0DF" sketch:type="MSShapeGroup"></path>
        <path d="M83.1,52.21 C83.1,52.65 83.07,53.07 83,53.49 L0,53.49 C1.99,46.43 8.48,41.27 16.17,41.27 C16.72,41.27 17.28,41.3 17.82,41.35 C19.4,31.52 27.9,24 38.19,24 C49.59,24 58.84,33.24 58.84,44.65 C58.84,45.37 58.8,46.09 58.73,46.79 C61.66,46.92 64.35,47.96 66.54,49.63 C67.63,46.21 70.84,43.73 74.62,43.73 C79.3,43.73 83.1,47.53 83.1,52.21" id="Fill-342" fill="#C5E0DF" sketch:type="MSShapeGroup"></path>
        <path d="M219.71,103.91 L113,103.91 C113.24,94.19 121.19,86.38 130.97,86.38 C132.94,86.38 134.83,86.71 136.6,87.3 C139.05,77.37 148.01,70 158.7,70 C170.67,70 180.48,79.26 181.38,91 C182.31,90.83 183.27,90.73 184.25,90.73 C189.8,90.73 194.67,93.61 197.48,97.95 C199.79,95.1 203.31,93.27 207.27,93.27 C213.56,93.27 218.78,97.88 219.71,103.91" id="Fill-339" fill="#C5E0DF" sketch:type="MSShapeGroup"></path>
        <path d="M261.84,173.68 L157,173.68 C159.09,167.64 164.83,163.31 171.58,163.31 C171.83,163.31 172.08,163.34 172.34,163.35 C172.07,162.06 171.92,160.73 171.92,159.36 C171.92,148.67 180.59,140 191.29,140 C201.98,140 210.66,148.67 210.66,159.36 C210.66,159.74 210.62,160.1 210.6,160.47 C212.37,161.02 213.96,161.98 215.28,163.21 C217.67,160.08 221.43,158.06 225.68,158.06 C232.91,158.06 238.77,163.92 238.77,171.15 C238.77,171.24 238.76,171.32 238.76,171.41 C239.95,170.52 241.42,169.99 243.02,169.99 C244.87,169.99 246.56,170.7 247.83,171.86 C248.63,168.81 251.41,166.56 254.71,166.56 C258.65,166.56 261.84,169.75 261.84,173.68" id="Fill-343" fill="#C5E0DF" sketch:type="MSShapeGroup"></path>
        <path d="M552.242455,35.1079817 C552.242455,54.4967615 536.518844,70.2140031 517.122208,70.2140031 C497.72361,70.2140031 482,54.4967615 482,35.1079817 C482,15.7172416 497.72361,0 517.122208,0 C536.518844,0 552.242455,15.7172416 552.242455,35.1079817" id="Fill-42" fill="#F6BA5E" sketch:type="MSShapeGroup"></path>
    </g>
</svg>