<?xml version="1.0" encoding="UTF-8" standalone="no"?>
<svg width="181px" height="180px" viewBox="0 0 181 180" version="1.1" xmlns="http://www.w3.org/2000/svg" xmlns:xlink="http://www.w3.org/1999/xlink" xmlns:sketch="http://www.bohemiancoding.com/sketch/ns">
    <!-- Generator: Sketch 3.4.4 (17249) - http://www.bohemiancoding.com/sketch -->
    <title>Untitled 10</title>
    <desc>Created with Sketch.</desc>
    <defs></defs>
    <g id="Page-1" stroke="none" stroke-width="1" fill="none" fill-rule="evenodd" sketch:type="MSPage">
        <g id="08" sketch:type="MSLayerGroup" transform="translate(0.000000, -468.000000)">
            <g id="Page-1" sketch:type="MSShapeGroup">
                <path d="M180.667,558 C180.667,508.294 140.373,468 90.667,468 C40.961,468 0.667,508.294 0.667,558 C0.667,607.706 40.961,648 90.667,648 C140.373,648 180.667,607.706 180.667,558" id="Fill-30" fill="#50B26C"></path>
                <path d="M100.192,583.827 C103.273,578.92 103.788,577.753 108.262,577.382 C112.279,577.046 114.828,579.997 118.961,578.215 C124.246,575.935 131.535,565.577 133.224,560.056 C127.078,556.03 119.762,576.709 107.967,568.571 C110.021,560.576 108.193,543.554 108.193,543.554 C111.306,539.87 110.353,533.439 112.37,529.283 C114.008,525.907 117.808,521.681 120.68,518.616 C131.684,506.867 128.901,527.514 132.918,524.092 C139.579,518.416 133.679,508.041 125.581,511.27 C121.626,512.847 117.272,517.352 113.609,522.009 C116.363,516.716 118.7,510.835 118.5,506.549 C118.092,497.844 106.208,496.76 103.792,505.172 C102.336,510.243 119.986,499.174 113.836,514.052 C112.232,517.933 109.955,523.14 107.558,526.028 C104.607,529.582 98.358,531.372 96.29,535.729 C96.29,535.729 80.034,541.102 73.603,546.275 C61.317,538.898 77.123,523.688 70.918,519.757 C66.588,523.576 60.17,534.495 60.278,540.249 C60.362,544.75 64.103,545.851 65.459,549.648 C66.969,553.875 66.119,554.827 62.924,559.66 C53.55,552.854 38.229,549.136 30.845,561.116 C36.155,566.58 62.588,553.071 58.789,569.863 C56.253,581.072 47.115,570.445 41.694,571.557 C36.507,572.623 30.893,581.862 29.945,586.659 C36.746,593.766 37.774,581.115 42.516,579.221 C51.462,575.651 50.942,585.033 50.439,590.087 C49.908,595.438 48.615,606.856 57.765,606.411 C58.317,606.384 58.886,606.229 59.461,605.974 C59.452,606.661 59.535,607.296 59.754,607.85 C63.13,616.365 72.995,610.469 77.646,607.771 C82.042,605.226 90.369,600.874 90.814,610.495 C91.052,615.597 79.958,621.761 89.239,625.017 C93.215,622.172 99.308,613.241 98.134,608.075 C96.908,602.68 83.452,598.751 92.612,591.81 C106.331,581.409 104.956,611.063 112.126,613.641 C119.984,601.964 110.265,589.55 100.192,583.827" id="Fill-81" fill="#98634B"></path>
                <path d="M64.686,598.089 C69.609,589.875 74.222,581.579 79.917,573.964 C83.318,569.417 88.339,561.709 91.233,556.881 C94.267,551.818 92.78,551.787 92.408,551.008 C85.555,560.449 78.287,568.757 72.079,579.115 C66.587,588.276 61.138,596.94 56.885,606.415 C57.168,606.425 57.459,606.427 57.765,606.411 C58.317,606.384 58.886,606.229 59.461,605.974 C59.459,606.162 59.465,606.347 59.477,606.527 C61.614,604.129 63.154,600.644 64.686,598.089" id="Fill-82" fill="#D5D67F"></path>
                <path d="M102.394,531.848 C101.859,532.267 101.4,532.754 100.944,533.254 C100.576,533.659 101.164,534.278 101.534,533.871 C101.989,533.371 102.449,532.884 102.983,532.465 C103.417,532.127 102.823,531.513 102.394,531.848" id="Fill-83" fill="#FFFFFF"></path>
                <path d="M108.738,537.957 C108.765,537.764 108.94,537.424 109.041,537.204 C109.206,536.843 109.388,536.486 109.59,536.142 C109.869,535.668 109.137,535.229 108.858,535.703 C108.467,536.368 107.99,537.173 107.884,537.948 C107.81,538.491 108.665,538.496 108.738,537.957" id="Fill-84" fill="#FFFFFF"></path>
            </g>
        </g>
    </g>
</svg>