<?xml version="1.0"?><svg width="612.164" height="613.171" xmlns="http://www.w3.org/2000/svg">
 <title>people</title>
 <g>
  <title>Layer 1</title>
  <path stroke="#ffffff" fill="#56aaff" id="path2457" d="m302.803009,90.423897"/>
  <g id="svg_1">
   <path fill="#000000" id="path2455" d="m77.223915,64.271744c10.880661,0 19.702522,-8.821869 19.702522,-19.703056c0,-10.880646 -8.821861,-19.702026 -19.702522,-19.702026c-10.881134,0 -19.702042,8.821381 -19.702042,19.702026c0,10.881187 8.820908,19.703056 19.702042,19.703056z" stroke="#000000"/>
   <path fill="#000000" id="path2459" d="m57.105,68.620438c-13.952663,0 -25.172991,11.379044 -25.172991,25.572006l0,60.49231c0,11.760712 17.211897,11.760712 17.211897,0l0,-55.313736l4.074154,0l0,151.457321c0,15.723877 22.919765,15.261169 22.919765,0l0,-87.91954l3.947754,0l0,87.91954c0,15.261169 23.046173,15.723877 23.046173,0l0,-151.457321l3.979103,0l0,55.313736c0,11.850937 17.122147,11.850937 17.090775,0l0,-60.130432c0,-13.08757 -10.163177,-25.906876 -25.482269,-25.906876l-41.614361,-0.027008z" stroke="#000000"/>
  </g>
  <g id="svg_2">
   <path id="svg_3" fill="#000000" d="m189.977417,65.391281c10.880661,0 19.702515,-8.821854 19.702515,-19.703049c0,-10.880646 -8.821854,-19.702026 -19.702515,-19.702026c-10.881134,0 -19.702057,8.821381 -19.702057,19.702026c0,10.881195 8.820923,19.703049 19.702057,19.703049z" stroke="#000000"/>
   <path id="svg_4" fill="#000000" d="m169.85849,69.73999c-13.952652,0 -25.172989,11.379028 -25.172989,25.571991l0,60.49231c0,11.760712 17.211899,11.760712 17.211899,0l0,-55.313736l4.074158,0l0,151.457321c0,15.723877 22.919769,15.261169 22.919769,0l0,-87.919525l3.947754,0l0,87.919525c0,15.261169 23.046158,15.723877 23.046158,0l0,-151.457321l3.979126,0l0,55.313736c0,11.850952 17.122131,11.850952 17.090759,0l0,-60.130417c0,-13.087585 -10.163177,-25.906891 -25.482269,-25.906891l-41.614365,-0.026993z" stroke="#000000"/>
  </g>
  <g id="svg_5">
   <path id="svg_6" fill="#000000" d="m295.977417,66.391281c10.880676,0 19.702515,-8.821854 19.702515,-19.703049c0,-10.880646 -8.821838,-19.702026 -19.702515,-19.702026c-10.881134,0 -19.702057,8.821381 -19.702057,19.702026c0,10.881195 8.820923,19.703049 19.702057,19.703049z" stroke="#000000"/>
   <path id="svg_7" fill="#000000" d="m275.85849,70.73999c-13.952667,0 -25.172989,11.379028 -25.172989,25.571991l0,60.49231c0,11.760712 17.211899,11.760712 17.211899,0l0,-55.313736l4.074158,0l0,151.457321c0,15.723877 22.919769,15.261169 22.919769,0l0,-87.919525l3.947754,0l0,87.919525c0,15.261169 23.046173,15.723877 23.046173,0l0,-151.457321l3.979095,0l0,55.313736c0,11.850952 17.122162,11.850952 17.09079,0l0,-60.130417c0,-13.087585 -10.163208,-25.906891 -25.4823,-25.906891l-41.614349,-0.026993z" stroke="#000000"/>
  </g>
  <g id="svg_8">
   <path id="svg_9" fill="#000000" d="m405.977417,66.391281c10.880646,0 19.702515,-8.821869 19.702515,-19.703053c0,-10.880646 -8.821869,-19.70203 -19.702515,-19.70203c-10.881165,0 -19.702057,8.821384 -19.702057,19.70203c0,10.881184 8.820892,19.703053 19.702057,19.703053z" stroke="#000000"/>
   <path id="svg_10" fill="#000000" d="m385.85849,70.739975c-13.952667,0 -25.173004,11.379044 -25.173004,25.571999l0,60.492317c0,11.760712 17.211914,11.760712 17.211914,0l0,-55.313736l4.074127,0l0,151.457321c0,15.723877 22.9198,15.261169 22.9198,0l0,-87.91954l3.947723,0l0,87.91954c0,15.261169 23.046173,15.723877 23.046173,0l0,-151.457321l3.979126,0l0,55.313736c0,11.850937 17.122131,11.850937 17.090759,0l0,-60.130424c0,-13.087578 -10.163177,-25.906876 -25.482269,-25.906876l-41.614349,-0.027016z" stroke="#000000"/>
  </g>
  <g id="svg_11">
   <path id="svg_12" fill="#000000" d="m513.977417,66.391281c10.880676,0 19.702515,-8.821869 19.702515,-19.703053c0,-10.880646 -8.821838,-19.70203 -19.702515,-19.70203c-10.881165,0 -19.702057,8.821384 -19.702057,19.70203c0,10.881184 8.820892,19.703053 19.702057,19.703053z" stroke="#000000"/>
   <path id="svg_13" fill="#000000" d="m493.85849,70.739975c-13.952667,0 -25.173004,11.379044 -25.173004,25.571999l0,60.492317c0,11.760712 17.211914,11.760712 17.211914,0l0,-55.313736l4.074127,0l0,151.457321c0,15.723877 22.91983,15.261169 22.91983,0l0,-87.91954l3.947693,0l0,87.91954c0,15.261169 23.046143,15.723877 23.046143,0l0,-151.457321l3.979126,0l0,55.313736c0,11.850937 17.122131,11.850937 17.09082,0l0,-60.130432c0,-13.08757 -10.163208,-25.906868 -25.4823,-25.906868l-41.614349,-0.027016z" stroke="#000000"/>
  </g>
  <g id="svg_14">
   <path id="svg_15" fill="#000000" d="m79.977448,330.391296c10.880676,0 19.702515,-8.821899 19.702515,-19.703064c0,-10.880646 -8.821838,-19.702026 -19.702515,-19.702026c-10.881165,0 -19.702057,8.821381 -19.702057,19.702026c0,10.881165 8.820892,19.703064 19.702057,19.703064z" stroke="#000000"/>
   <path id="svg_16" fill="#000000" d="m59.858521,334.73996c-13.952667,0 -25.173004,11.379059 -25.173004,25.572021l0,60.49231c0,11.760712 17.211914,11.760712 17.211914,0l0,-55.313751l4.074127,0l0,151.457336c0,15.723877 22.9198,15.261169 22.9198,0l0,-87.919556l3.947723,0l0,87.919556c0,15.261169 23.046143,15.723877 23.046143,0l0,-151.457336l3.979126,0l0,55.313751c0,11.850922 17.122131,11.850922 17.09082,0l0,-60.130432c0,-13.087585 -10.163208,-25.90686 -25.4823,-25.90686l-41.614349,-0.027039z" stroke="#000000"/>
  </g>
  <g id="svg_17">
   <path id="svg_18" fill="#000000" d="m189.977448,331.391296c10.880676,0 19.702515,-8.821899 19.702515,-19.703064c0,-10.880646 -8.821838,-19.702026 -19.702515,-19.702026c-10.881165,0 -19.702057,8.821381 -19.702057,19.702026c0,10.881165 8.820892,19.703064 19.702057,19.703064z" stroke="#000000"/>
   <path id="svg_19" fill="#000000" d="m169.858521,335.73996c-13.952667,0 -25.173004,11.379059 -25.173004,25.572021l0,60.49231c0,11.760712 17.211914,11.760712 17.211914,0l0,-55.313751l4.074127,0l0,151.457336c0,15.723877 22.9198,15.261169 22.9198,0l0,-87.919556l3.947723,0l0,87.919556c0,15.261169 23.046143,15.723877 23.046143,0l0,-151.457336l3.979126,0l0,55.313751c0,11.850922 17.122131,11.850922 17.09082,0l0,-60.130432c0,-13.087585 -10.163208,-25.90686 -25.4823,-25.90686l-41.614349,-0.027039z" stroke="#000000"/>
  </g>
  <g id="svg_20">
   <path id="svg_21" fill="#000000" d="m297.977448,331.391296c10.880676,0 19.702515,-8.821899 19.702515,-19.703064c0,-10.880646 -8.821838,-19.702026 -19.702515,-19.702026c-10.881165,0 -19.702057,8.821381 -19.702057,19.702026c0,10.881165 8.820892,19.703064 19.702057,19.703064z" stroke="#000000"/>
   <path id="svg_22" fill="#000000" d="m277.858521,335.73996c-13.952667,0 -25.173004,11.379059 -25.173004,25.572021l0,60.49231c0,11.760712 17.211914,11.760712 17.211914,0l0,-55.313751l4.074127,0l0,151.457336c0,15.723877 22.9198,15.261169 22.9198,0l0,-87.919556l3.947723,0l0,87.919556c0,15.261169 23.046143,15.723877 23.046143,0l0,-151.457336l3.979126,0l0,55.313751c0,11.850922 17.122131,11.850922 17.09082,0l0,-60.130432c0,-13.087585 -10.163208,-25.90686 -25.4823,-25.90686l-41.614349,-0.027039z" stroke="#000000"/>
  </g>
  <g id="svg_23">
   <path id="svg_24" fill="#000000" d="m404.977448,331.391296c10.880676,0 19.702515,-8.821899 19.702515,-19.703064c0,-10.880646 -8.821838,-19.702026 -19.702515,-19.702026c-10.881165,0 -19.702057,8.821381 -19.702057,19.702026c0,10.881165 8.820892,19.703064 19.702057,19.703064z" stroke="#000000"/>
   <path id="svg_25" fill="#000000" d="m384.858521,335.73996c-13.952667,0 -25.173004,11.379059 -25.173004,25.572021l0,60.49231c0,11.760712 17.211914,11.760712 17.211914,0l0,-55.313751l4.074127,0l0,151.457336c0,15.723877 22.9198,15.261169 22.9198,0l0,-87.919556l3.947723,0l0,87.919556c0,15.261169 23.046143,15.723877 23.046143,0l0,-151.457336l3.979126,0l0,55.313751c0,11.850922 17.122101,11.850922 17.090851,0l0,-60.130432c0,-13.087585 -10.163239,-25.90686 -25.48233,-25.90686l-41.614349,-0.027039z" stroke="#000000"/>
  </g>
  <g id="svg_26">
   <path id="svg_27" fill="#000000" d="m508.977448,331.391296c10.880707,0 19.702545,-8.821899 19.702545,-19.703064c0,-10.880646 -8.821838,-19.702026 -19.702545,-19.702026c-10.881165,0 -19.702057,8.821381 -19.702057,19.702026c0,10.881165 8.820892,19.703064 19.702057,19.703064z" stroke="#000000"/>
   <path id="svg_28" fill="#000000" d="m488.858521,335.73996c-13.952667,0 -25.173004,11.379059 -25.173004,25.572021l0,60.49231c0,11.760712 17.211914,11.760712 17.211914,0l0,-55.313751l4.074127,0l0,151.457336c0,15.723877 22.9198,15.261169 22.9198,0l0,-87.919556l3.947723,0l0,87.919556c0,15.261169 23.046112,15.723877 23.046112,0l0,-151.457336l3.979187,0l0,55.313751c0,11.850922 17.12207,11.850922 17.09082,0l0,-60.130432c0,-13.087585 -10.163208,-25.90686 -25.4823,-25.90686l-41.61438,-0.027039z" stroke="#000000"/>
  </g>
 </g>
</svg>