<svg id="Layer_1" data-name="Layer 1" xmlns="http://www.w3.org/2000/svg" xmlns:xlink="http://www.w3.org/1999/xlink" viewBox="0 0 65 80"><defs><style>.cls-1{fill:none;}.cls-2{fill:#d48a6d;}.cls-3{fill:#df9274;}.cls-4{fill:#e9b39e;}.cls-5{fill:#ba8f7e;}.cls-6{fill:#b2755d;}.cls-7{fill:#fff;}.cls-8{fill:#2c3e50;}.cls-9{fill:#c9816b;}.cls-10{clip-path:url(#clip-path);}.cls-11{fill:#ebedee;}</style><clipPath id="clip-path" transform="translate(0 -3.98)"><path class="cls-1" d="M18,52H10a2.08,2.08,0,0,0-2,2.15V78.82A2.08,2.08,0,0,0,10,81h8a2.08,2.08,0,0,0,2-2.15V54.12A2.08,2.08,0,0,0,18,52Zm38,0H48a2.08,2.08,0,0,0-2,2.15V78.82A2.08,2.08,0,0,0,48,81h8a2.08,2.08,0,0,0,2-2.15V54.12A2.08,2.08,0,0,0,56,52Z"/></clipPath></defs><title>pig</title><path class="cls-2" d="M18,52H10a2.08,2.08,0,0,0-2,2.15V78.82A2.08,2.08,0,0,0,10,81h8a2.08,2.08,0,0,0,2-2.15V54.12A2.08,2.08,0,0,0,18,52Zm38,0H48a2.08,2.08,0,0,0-2,2.15V78.82A2.08,2.08,0,0,0,48,81h8a2.08,2.08,0,0,0,2-2.15V54.12A2.08,2.08,0,0,0,56,52Z" transform="translate(0 -3.98)"/><path class="cls-3" d="M58.79,23.2c2.9-3.69,4.21-9.73,4.21-9.73L49.53,4A57.41,57.41,0,0,0,48,13.75,31.47,31.47,0,0,0,33,10,32.88,32.88,0,0,0,16.95,14.2,57.24,57.24,0,0,0,15.44,4L2,13.46s1.36,6.32,4.4,10a31.74,31.74,0,0,0-6.4,19C0,60.19,15.08,75,33,75s32-14.76,32-32.5A32.84,32.84,0,0,0,58.79,23.2Z" transform="translate(0 -3.98)"/><path class="cls-4" d="M32.5,35C39.4,35,45,39.45,45,45S39.4,55,32.5,55,20,50.49,20,45,25.6,35,32.5,35Z" transform="translate(0 -3.98)"/><path class="cls-5" d="M27,41a2,2,0,0,1,2,2v4a2,2,0,1,1-4,0V43A2,2,0,0,1,27,41Z" transform="translate(0 -3.98)"/><path class="cls-5" d="M38,41a2,2,0,0,1,2,2v4a2,2,0,1,1-4,0V43A2,2,0,0,1,38,41Z" transform="translate(0 -3.98)"/><path class="cls-6" d="M32.51,65.25h0c-6.86,0-9.43-3.84-9.69-4.26v0h0a1.5,1.5,0,0,1,2.58-1.53c0.06,0.1,1.85,2.81,7.13,2.81s7.06-2.72,7.14-2.83A1.5,1.5,0,0,1,42.19,61h0c-0.3.5-2.78,4.26-9.67,4.27h0Z" transform="translate(0 -3.98)"/><path class="cls-7" d="M20.07,26a4,4,0,0,1,0,8A4,4,0,1,1,20.07,26Z" transform="translate(0 -3.98)"/><path class="cls-8" d="M20,28a2,2,0,1,1-2,2A2,2,0,0,1,20,28Z" transform="translate(0 -3.98)"/><path class="cls-7" d="M45.07,26a4,4,0,0,1,0,8A4,4,0,1,1,45.07,26Z" transform="translate(0 -3.98)"/><path class="cls-8" d="M45,28a2,2,0,1,1-2,2A2,2,0,0,1,45,28Z" transform="translate(0 -3.98)"/><path class="cls-9" d="M60.1,14.55L51.83,8.73s-3,11.65,1.65,13.31S60.1,14.55,60.1,14.55Z" transform="translate(0 -3.98)"/><g class="cls-10"><path class="cls-11" d="M49,78a3,3,0,1,0,3,3A3,3,0,0,0,49,78Zm6,0a3,3,0,1,0,3,3A3,3,0,0,0,55,78ZM11,78a3,3,0,1,0,3,3A3,3,0,0,0,11,78Zm6,0a3,3,0,1,0,3,3A3,3,0,0,0,17,78Z" transform="translate(0 -3.98)"/></g><path class="cls-9" d="M11.51,22c4.64-1.65,1.65-13.31,1.65-13.31L4.89,14.55S6.87,23.69,11.51,22Z" transform="translate(0 -3.98)"/></svg>