<?xml version="1.0" encoding="UTF-8" standalone="no"?>
<svg width="173px" height="136px" viewBox="0 0 173 136" version="1.1" xmlns="http://www.w3.org/2000/svg" xmlns:xlink="http://www.w3.org/1999/xlink" xmlns:sketch="http://www.bohemiancoding.com/sketch/ns">
    <!-- Generator: Sketch 3.4.4 (17249) - http://www.bohemiancoding.com/sketch -->
    <title>Untitled</title>
    <desc>Created with Sketch.</desc>
    <defs></defs>
    <g id="Page-1" stroke="none" stroke-width="1" fill="none" fill-rule="evenodd" sketch:type="MSPage">
        <g id="pig" sketch:type="MSLayerGroup">
            <path d="M141.436,76.239 C141.436,105.997 116.953,130.121 86.751,130.121 C56.551,130.121 32.069,105.997 32.069,76.239 C32.069,46.481 56.551,22.357 86.751,22.357 C116.953,22.357 141.436,46.481 141.436,76.239" id="Fill-485" fill="#DA9793" sketch:type="MSShapeGroup"></path>
            <path d="M86.501,109.101 L86.469,109.101 L86.469,102.626 C86.563,102.627 86.659,102.627 86.753,102.627 C110.192,102.627 129.447,90.839 131.562,75.785 C133.796,72.934 135.687,69.859 137.183,66.607 C137.687,68.689 137.948,70.835 137.948,73.025 C137.948,92.949 116.37,109.101 86.501,109.101" id="Fill-486" fill="#BF8580" sketch:type="MSShapeGroup"></path>
            <path d="M131.579,14.566 C140.319,13.805 148.064,14.53 155.154,20.177 C162.298,25.865 167.48,33.903 172.681,41.292 C162.737,45.913 150.562,52.738 139.156,50.773 C129.459,49.102 124.267,40.274 119.692,32.468 C125.651,30.779 119.031,20.193 122.708,16.049 L131.579,14.566" id="Fill-487" fill="#D9AA9A" sketch:type="MSShapeGroup"></path>
            <path d="M131.785,21.835 C137.052,21.377 141.717,21.812 145.99,25.216 C150.291,28.643 153.413,33.484 156.549,37.936 C150.557,40.721 143.223,44.832 136.351,43.648 C130.507,42.641 127.38,37.324 124.625,32.619 C128.216,31.603 128.93,24.533 131.145,22.037 L131.785,21.835" id="Fill-488" fill="#B37D7A" sketch:type="MSShapeGroup"></path>
            <path d="M41.424,14.566 C32.682,13.805 24.938,14.53 17.849,20.177 C10.705,25.865 5.523,33.903 0.32,41.292 C10.266,45.913 22.439,52.738 33.845,50.773 C43.544,49.102 48.734,40.274 53.309,32.468 C47.35,30.779 53.971,20.193 50.294,16.049 L41.424,14.566" id="Fill-489" fill="#D59290" sketch:type="MSShapeGroup"></path>
            <path d="M41.218,21.835 C35.949,21.377 31.284,21.812 27.013,25.216 C22.71,28.643 19.59,33.484 16.454,37.936 C22.444,40.721 29.779,44.832 36.651,43.648 C42.494,42.641 45.622,37.324 48.377,32.619 C44.786,31.603 44.072,24.533 41.856,22.037 L41.218,21.835" id="Fill-490" fill="#B37D7A" sketch:type="MSShapeGroup"></path>
            <path d="M141.131,48.682 C141.131,75.096 116.783,96.509 86.751,96.509 C56.719,96.509 32.374,75.096 32.374,48.682 C32.374,22.267 56.719,0.854 86.751,0.854 C116.783,0.854 141.131,22.267 141.131,48.682" id="Fill-491" fill="#DE9895" sketch:type="MSShapeGroup"></path>
            <path d="M123.624,50.646 C118.72,50.646 114.744,46.67 114.744,41.766 C114.744,36.863 118.72,32.885 123.624,32.885 C128.53,32.885 132.506,36.863 132.506,41.766 C132.506,46.67 128.53,50.646 123.624,50.646" id="Fill-492" fill="#AD7774" sketch:type="MSShapeGroup"></path>
            <path d="M128.821,41.767 C128.821,44.321 126.752,46.395 124.197,46.395 C121.639,46.395 119.569,44.321 119.569,41.767 C119.569,39.211 121.639,37.138 124.197,37.138 C126.752,37.138 128.821,39.211 128.821,41.767" id="Fill-493" fill="#1A1A18" sketch:type="MSShapeGroup"></path>
            <path d="M126.648,41.658 C126.648,42.25 126.168,42.729 125.579,42.729 C124.988,42.729 124.511,42.25 124.511,41.658 C124.511,41.069 124.988,40.592 125.579,40.592 C126.168,40.592 126.648,41.069 126.648,41.658" id="Fill-494" fill="#FFFFFF" sketch:type="MSShapeGroup"></path>
            <path d="M51.838,41.767 C51.838,44.321 49.768,46.394 47.213,46.394 C44.655,46.394 42.586,44.321 42.586,41.767 C42.586,39.211 44.655,37.138 47.213,37.138 C49.768,37.138 51.838,39.211 51.838,41.767" id="Fill-495" fill="#1A1A18" sketch:type="MSShapeGroup"></path>
            <path d="M49.665,41.658 C49.665,42.25 49.185,42.728 48.596,42.728 C48.005,42.728 47.528,42.25 47.528,41.658 C47.528,41.069 48.005,40.592 48.596,40.592 C49.185,40.592 49.665,41.069 49.665,41.658" id="Fill-496" fill="#FFFFFF" sketch:type="MSShapeGroup"></path>
            <path d="M131.755,73.027 C131.755,89.373 111.606,102.627 86.753,102.627 C61.897,102.627 41.75,89.373 41.75,73.027 C41.75,56.678 61.897,43.425 86.753,43.425 C111.606,43.425 131.755,56.678 131.755,73.027" id="Fill-497" fill="#F0B2A6" sketch:type="MSShapeGroup"></path>
            <path d="M76.087,74.481 C76.087,79.711 71.846,83.953 66.614,83.953 C61.382,83.953 57.141,79.711 57.141,74.481 C57.141,69.248 61.382,65.007 66.614,65.007 C71.846,65.007 76.087,69.248 76.087,74.481" id="Fill-498" fill="#C08682" sketch:type="MSShapeGroup"></path>
            <path d="M114.744,74.48 C114.744,79.711 110.502,83.953 105.271,83.953 C100.039,83.953 95.797,79.711 95.797,74.48 C95.797,69.248 100.039,65.007 105.271,65.007 C110.502,65.007 114.744,69.248 114.744,74.48" id="Fill-499" fill="#C08682" sketch:type="MSShapeGroup"></path>
            <path d="M70.489,118.243 C70.489,124.183 66.806,128.996 62.262,128.996 C57.719,128.996 54.037,124.183 54.037,118.243 C54.037,112.305 57.719,107.49 62.262,107.49 C66.806,107.49 70.489,112.305 70.489,118.243" id="Fill-500" fill="#DA9793" sketch:type="MSShapeGroup"></path>
            <path d="M121.131,118.243 C121.131,124.183 117.176,128.996 112.296,128.996 C107.416,128.996 103.459,124.183 103.459,118.243 C103.459,112.305 107.416,107.49 112.296,107.49 C117.176,107.49 121.131,112.305 121.131,118.243" id="Fill-501" fill="#DA9793" sketch:type="MSShapeGroup"></path>
            <path d="M78.041,134.832 C78.041,126.703 71.45,120.109 63.319,120.109 C55.189,120.109 48.596,126.703 48.596,134.832 C48.596,135.077 48.62,135.316 48.631,135.558 L57.892,135.558 C57.981,132.629 60.369,130.277 63.319,130.277 C66.269,130.277 68.657,132.629 68.747,135.558 L78.002,135.558 C78.015,135.316 78.041,135.077 78.041,134.832" id="Fill-502" fill="#1A1918" sketch:type="MSShapeGroup"></path>
            <path d="M128.821,134.832 C128.821,126.703 122.232,120.109 114.101,120.109 C105.969,120.109 99.377,126.703 99.377,134.832 C99.377,135.077 99.402,135.316 99.414,135.558 L108.672,135.558 C108.761,132.629 111.151,130.277 114.101,130.277 C117.05,130.277 119.439,132.629 119.528,135.558 L128.785,135.558 C128.798,135.316 128.821,135.077 128.821,134.832" id="Fill-503" fill="#1A1918" sketch:type="MSShapeGroup"></path>
            <path d="M77.971,135.56 L68.715,135.56 C68.626,132.632 66.237,130.28 63.288,130.28 C63.128,130.28 62.969,130.287 62.812,130.301 C62.979,130.285 63.148,130.277 63.319,130.277 C66.269,130.277 68.657,132.629 68.747,135.558 L77.971,135.558 L77.971,135.56 M57.86,135.56 L48.6,135.56 C48.589,135.319 48.565,135.079 48.565,134.835 C48.565,129.871 51.031,125.489 54.796,122.822 C54.42,121.781 54.164,120.652 54.061,119.46 C40.694,109.637 32.038,93.936 32.038,76.241 C32.038,71.005 32.81,65.948 34.225,61.161 C33.222,57.89 32.598,54.483 32.409,50.975 C32.418,50.974 32.427,50.973 32.436,50.972 C32.624,54.478 33.24,57.884 34.241,61.152 C32.827,65.939 32.069,71.003 32.069,76.239 C32.069,93.932 40.724,109.633 54.088,119.457 C54.191,120.645 54.441,121.775 54.814,122.814 C51.052,125.481 48.596,129.871 48.596,134.832 C48.596,135.077 48.62,135.316 48.631,135.558 L57.861,135.558 C57.86,135.558 57.86,135.559 57.86,135.56 M17.8,48.939 C11.629,46.894 5.637,43.779 0.289,41.294 C5.492,33.905 10.673,25.868 17.817,20.179 C22.438,16.499 27.336,14.909 32.607,14.459 C27.348,14.913 22.46,16.504 17.849,20.177 C10.705,25.865 5.523,33.903 0.32,41.292 C5.659,43.773 11.64,46.888 17.8,48.939 M47.5,15.582 L47.494,15.581 C52.308,11.169 58.072,7.566 64.498,5.03 C58.072,7.568 52.312,11.169 47.5,15.582" id="Fill-504" fill="#C3B1A1" sketch:type="MSShapeGroup"></path>
            <path d="M86.469,130.118 C83.219,130.103 80.039,129.799 76.945,129.249 C75.612,125.999 73.149,123.33 70.046,121.733 C70.333,120.639 70.489,119.465 70.489,118.243 C70.489,112.305 66.806,107.49 62.262,107.49 C57.719,107.49 54.037,112.305 54.037,118.243 C54.037,118.653 54.054,119.058 54.088,119.457 C40.724,109.633 32.069,93.932 32.069,76.239 C32.069,71.003 32.827,65.939 34.241,61.152 C34.756,62.834 35.374,64.481 36.086,66.084 C35.57,68.192 35.303,70.368 35.303,72.598 C35.303,92.512 56.615,109.089 86.469,109.101 L86.469,130.118" id="Fill-505" fill="#AB7773" sketch:type="MSShapeGroup"></path>
            <path d="M86.469,109.101 C56.615,109.089 35.303,92.512 35.303,72.598 C35.303,70.368 35.57,68.192 36.086,66.084 C37.618,69.531 39.59,72.782 41.943,75.786 C44.049,90.779 63.155,102.532 86.469,102.626 L86.469,109.101" id="Fill-506" fill="#976B67" sketch:type="MSShapeGroup"></path>
            <path d="M29.639,51.101 C25.7,51.101 21.714,50.236 17.8,48.939 C11.64,46.888 5.659,43.773 0.32,41.292 C5.523,33.903 10.705,25.865 17.849,20.177 C22.46,16.504 27.348,14.913 32.607,14.459 C33.752,14.362 34.913,14.318 36.094,14.318 C37.819,14.318 39.585,14.412 41.392,14.569 L47.486,15.588 C47.489,15.586 47.492,15.583 47.494,15.581 L47.5,15.582 C45.348,17.556 43.384,19.694 41.64,21.969 L41.218,21.835 C40.129,21.74 39.065,21.684 38.026,21.684 C34.037,21.684 30.402,22.516 27.013,25.216 C22.71,28.643 19.59,33.484 16.454,37.936 C21.294,40.186 27.013,43.303 32.655,43.792 C32.47,45.399 32.374,47.031 32.374,48.682 C32.374,49.449 32.395,50.213 32.436,50.972 C32.427,50.973 32.418,50.974 32.409,50.975 C32.409,50.967 32.409,50.96 32.408,50.952 C31.489,51.054 30.565,51.101 29.639,51.101" id="Fill-507" fill="#A67371" sketch:type="MSShapeGroup"></path>
            <path d="M64.534,5.016 C64.536,5.015 64.539,5.014 64.541,5.013 C64.538,5.014 64.537,5.014 64.534,5.016" id="Fill-508" fill="#C3B1A1" sketch:type="MSShapeGroup"></path>
            <path d="M32.655,43.792 C27.013,43.303 21.294,40.186 16.454,37.936 C19.59,33.484 22.71,28.643 27.013,25.216 C30.402,22.516 34.037,21.684 38.026,21.684 C39.065,21.684 40.129,21.74 41.218,21.835 L41.64,21.969 C36.765,28.324 33.582,35.764 32.655,43.792" id="Fill-509" fill="#8D6462" sketch:type="MSShapeGroup"></path>
            <path d="M41.943,75.786 C39.59,72.782 37.618,69.531 36.086,66.084 C35.374,64.481 34.756,62.834 34.241,61.152 C33.24,57.884 32.624,54.478 32.436,50.972 C32.395,50.213 32.374,49.449 32.374,48.682 C32.374,47.031 32.47,45.399 32.655,43.792 C33.582,35.764 36.765,28.324 41.64,21.969 C43.384,19.694 45.348,17.556 47.5,15.582 C52.312,11.169 58.072,7.568 64.498,5.03 C64.51,5.025 64.522,5.02 64.534,5.016 C64.537,5.014 64.538,5.014 64.541,5.013 C71.241,2.374 78.66,0.894 86.469,0.862 L86.469,43.425 C61.743,43.525 41.75,56.74 41.75,73.027 C41.75,73.957 41.816,74.878 41.943,75.786 M46.641,32.885 C41.737,32.885 37.761,36.863 37.761,41.766 C37.761,46.67 41.737,50.646 46.641,50.646 C51.547,50.646 55.523,46.67 55.523,41.766 C55.523,36.863 51.547,32.885 46.641,32.885" id="Fill-510" fill="#AD7774" sketch:type="MSShapeGroup"></path>
            <path d="M46.641,50.646 C41.737,50.646 37.761,46.67 37.761,41.766 C37.761,36.863 41.737,32.885 46.641,32.885 C51.547,32.885 55.523,36.863 55.523,41.766 C55.523,46.67 51.547,50.646 46.641,50.646 M47.213,37.138 C44.655,37.138 42.586,39.211 42.586,41.767 C42.586,44.321 44.655,46.394 47.213,46.394 C49.768,46.394 51.838,44.321 51.838,41.767 C51.838,39.211 49.768,37.138 47.213,37.138" id="Fill-511" fill="#885F5D" sketch:type="MSShapeGroup"></path>
            <path d="M47.213,46.394 C44.655,46.394 42.586,44.321 42.586,41.767 C42.586,39.211 44.655,37.138 47.213,37.138 C49.768,37.138 51.838,39.211 51.838,41.767 C51.838,44.321 49.768,46.394 47.213,46.394 M48.596,40.592 C48.005,40.592 47.528,41.069 47.528,41.658 C47.528,42.25 48.005,42.728 48.596,42.728 C49.185,42.728 49.665,42.25 49.665,41.658 C49.665,41.069 49.185,40.592 48.596,40.592" id="Fill-512" fill="#161614" sketch:type="MSShapeGroup"></path>
            <path d="M48.596,42.728 C48.005,42.728 47.528,42.25 47.528,41.658 C47.528,41.069 48.005,40.592 48.596,40.592 C49.185,40.592 49.665,41.069 49.665,41.658 C49.665,42.25 49.185,42.728 48.596,42.728" id="Fill-513" fill="#C7C7C2" sketch:type="MSShapeGroup"></path>
            <path d="M86.469,102.626 C63.155,102.532 44.049,90.779 41.943,75.786 C41.816,74.878 41.75,73.957 41.75,73.027 C41.75,56.74 61.743,43.525 86.469,43.425 L86.469,102.626 M66.614,65.007 C61.382,65.007 57.141,69.248 57.141,74.481 C57.141,79.711 61.382,83.953 66.614,83.953 C71.846,83.953 76.087,79.711 76.087,74.481 C76.087,69.248 71.846,65.007 66.614,65.007" id="Fill-514" fill="#BA8A80" sketch:type="MSShapeGroup"></path>
            <path d="M57.141,74.481 C57.141,69.248 61.382,65.007 66.614,65.007 C71.846,65.007 76.087,69.248 76.087,74.481 C76.087,79.711 71.846,83.953 66.614,83.953 C61.382,83.953 57.141,79.711 57.141,74.481 Z" id="Fill-515" fill="#986C68" sketch:type="MSShapeGroup"></path>
            <path d="M54.814,122.814 C54.441,121.775 54.191,120.645 54.088,119.457 C54.054,119.058 54.037,118.653 54.037,118.243 C54.037,112.305 57.719,107.49 62.262,107.49 C66.806,107.49 70.489,112.305 70.489,118.243 C70.489,119.465 70.333,120.639 70.046,121.733 C68.03,120.695 65.743,120.109 63.319,120.109 C60.151,120.109 57.217,121.11 54.814,122.814" id="Fill-516" fill="#AB7773" sketch:type="MSShapeGroup"></path>
            <path d="M77.971,135.558 L68.747,135.558 C68.657,132.629 66.269,130.277 63.319,130.277 C63.148,130.277 62.979,130.285 62.812,130.301 C60.085,130.538 57.946,132.79 57.861,135.558 L48.631,135.558 C48.62,135.316 48.596,135.077 48.596,134.832 C48.596,129.871 51.052,125.481 54.814,122.814 C57.217,121.11 60.151,120.109 63.319,120.109 C65.743,120.109 68.03,120.695 70.046,121.733 C73.149,123.33 75.612,125.999 76.945,129.249 C76.931,129.246 76.916,129.244 76.902,129.241 C77.612,130.967 78.01,132.853 78.01,134.835 C78.01,135.078 77.983,135.318 77.971,135.558" id="Fill-517" fill="#0A0A08" sketch:type="MSShapeGroup"></path>
        </g>
    </g>
</svg>