<?xml version="1.0" encoding="UTF-8" standalone="no"?>
<svg width="127px" height="72px" viewBox="0 0 127 72" version="1.1" xmlns="http://www.w3.org/2000/svg" xmlns:xlink="http://www.w3.org/1999/xlink" xmlns:sketch="http://www.bohemiancoding.com/sketch/ns">
    <!-- Generator: Sketch 3.4.4 (17249) - http://www.bohemiancoding.com/sketch -->
    <title>Untitled 7</title>
    <desc>Created with Sketch.</desc>
    <defs></defs>
    <g id="Page-1" stroke="none" stroke-width="1" fill="none" fill-rule="evenodd" sketch:type="MSPage">
        <g id="Group" sketch:type="MSLayerGroup">
            <path d="M63.2419698,28.4378744 C59.8490139,27.5793955 35.8116056,22.8071892 10.7418493,52.0916003 C10.7418493,52.0916003 12.6510662,56.9290075 26.387564,61.1219287 C26.387564,61.1219287 41.4414549,67.2340976 63.2419698,63.3579861 C85.0433207,67.2340976 100.097212,61.1219287 100.097212,61.1219287 C113.832873,56.9290075 115.74209,52.0916003 115.74209,52.0916003 C90.672334,22.8071892 66.6357617,27.5793955 63.2419698,28.4378744" id="Fill-186" fill="#3C342E" sketch:type="MSShapeGroup"></path>
            <path d="M80.1791644,47.0381532 C80.1791644,52.3812856 75.8483182,56.7129676 70.50435,56.7129676 L56.3599284,56.7129676 C51.0167961,56.7129676 46.6859499,52.3812856 46.6859499,47.0381532 L46.6859499,38.9758079 C46.6859499,33.6318396 51.0167961,29.3009934 56.3599284,29.3009934 L70.50435,29.3009934 C75.8483182,29.3009934 80.1791644,33.6318396 80.1791644,38.9758079 L80.1791644,47.0381532" id="Fill-187" fill="#8B776A" sketch:type="MSShapeGroup"></path>
            <path d="M77.2220434,46.8141295 L74.8480609,44.3473611 L74.3899826,44.9249745 C72.5777312,47.2128583 67.1693979,53.1469785 63.9436239,53.1469785 C63.8633766,53.1469785 63.7873088,53.1653685 63.7162565,53.1929535 C63.6443683,53.1653685 63.5683006,53.1469785 63.4880533,53.1469785 C60.2622792,53.1469785 54.853946,47.2128583 53.0416946,44.9249745 L52.5836163,44.3473611 L50.2096338,46.8141295 C49.9630406,47.0707537 49.9705637,47.4786774 50.2271879,47.7252707 C50.4838121,47.9718639 50.8917358,47.9651766 51.139165,47.7068807 L52.4966817,46.2967017 C54.1283767,48.247714 59.6094341,54.4367866 63.4880533,54.4367866 C63.5683006,54.4367866 63.6443683,54.4175607 63.7162565,54.3908116 C63.7873088,54.4175607 63.8633766,54.4367866 63.9436239,54.4367866 C67.8222431,54.4367866 73.3033005,48.247714 74.9349955,46.2967017 L76.2925122,47.7068807 C76.5399414,47.9651766 76.948701,47.9718639 77.2044893,47.7252707 C77.4611134,47.4786774 77.4686366,47.0707537 77.2220434,46.8141295" id="Fill-188" fill="#3E1817" sketch:type="MSShapeGroup"></path>
            <path d="M54.9689753,38.4575441 C54.9689753,40.2823341 53.4885799,41.7635654 51.662954,41.7635654 C49.8381639,41.7635654 48.3577685,40.2823341 48.3577685,38.4575441 C48.3577685,36.6319181 49.8381639,35.1523586 51.662954,35.1523586 C53.4885799,35.1523586 54.9689753,36.6319181 54.9689753,38.4575441" id="Fill-189" fill="#3E1817" sketch:type="MSShapeGroup"></path>
            <path d="M54.2300315,37.2521628 C54.2300315,37.950983 53.6641209,38.5160577 52.9661366,38.5160577 C52.2673164,38.5160577 51.7014058,37.950983 51.7014058,37.2521628 C51.7014058,36.5550145 52.2673164,35.988268 52.9661366,35.988268 C53.6641209,35.988268 54.2300315,36.5550145 54.2300315,37.2521628" id="Fill-190" fill="#F9EBE1" sketch:type="MSShapeGroup"></path>
            <path d="M79.2095096,38.4575441 C79.2095096,40.2823341 77.7291142,41.7635654 75.9043242,41.7635654 C74.0786982,41.7635654 72.5991387,40.2823341 72.5991387,38.4575441 C72.5991387,36.6319181 74.0786982,35.1523586 75.9043242,35.1523586 C77.7291142,35.1523586 79.2095096,36.6319181 79.2095096,38.4575441" id="Fill-191" fill="#3E1817" sketch:type="MSShapeGroup"></path>
            <path d="M78.4705658,37.2521628 C78.4705658,37.950983 77.9046551,38.5160577 77.2066709,38.5160577 C76.5078507,38.5160577 75.942776,37.950983 75.942776,37.2521628 C75.942776,36.5550145 76.5078507,35.988268 77.2066709,35.988268 C77.9046551,35.988268 78.4705658,36.5550145 78.4705658,37.2521628" id="Fill-192" fill="#F9EBE1" sketch:type="MSShapeGroup"></path>
            <path d="M62.4160914,39.675464 C62.4160914,40.3249655 61.8886326,40.8524243 61.2382952,40.8524243 C60.5879577,40.8524243 60.060499,40.3249655 60.060499,39.675464 C60.060499,39.0234547 60.5879577,38.4959959 61.2382952,38.4959959 C61.8886326,38.4959959 62.4160914,39.0234547 62.4160914,39.675464" id="Fill-193" fill="#3E1817" sketch:type="MSShapeGroup"></path>
            <path d="M67.4315473,39.675464 C67.4315473,40.3249655 66.9040885,40.8524243 66.2537511,40.8524243 C65.6034136,40.8524243 65.0759549,40.3249655 65.0759549,39.675464 C65.0759549,39.0234547 65.6034136,38.4959959 66.2537511,38.4959959 C66.9040885,38.4959959 67.4315473,39.0234547 67.4315473,39.675464" id="Fill-194" fill="#3E1817" sketch:type="MSShapeGroup"></path>
            <path d="M63.7945059,56.1058448 L63.7945059,70.8111615 C63.7945059,70.8111615 29.6576412,71.4556476 26.6241263,61.1380189 C26.6241263,61.1380189 33.9333174,63.7142914 43.82714,59.5247139 C53.7217986,55.3351364 63.7945059,56.1058448 63.7945059,56.1058448" id="Fill-195" fill="#C6C29F" sketch:type="MSShapeGroup"></path>
            <path d="M63.4041362,56.1058448 L63.4041362,70.8111615 C63.4041362,70.8111615 97.73326,71.4556476 100.766775,61.1380189 C100.766775,61.1380189 93.4575839,63.7142914 83.5629253,59.5247139 C73.6682667,55.3351364 63.4041362,56.1058448 63.4041362,56.1058448" id="Fill-196" fill="#D1CDC0" sketch:type="MSShapeGroup"></path>
            <path d="M63.3238889,21.1839216 L63.2277594,0.88720748 C63.2277594,0.88720748 48.2073049,-0.100837332 39.1627661,21.1839216 L63.3238889,21.1839216" id="Fill-197" fill="#7A5748" sketch:type="MSShapeGroup"></path>
            <path d="M50.6172314,5.45955195 C50.6172314,5.45955195 43.75358,-3.57328412 32.572457,6.4233554 C21.3921699,16.4199949 19.9368518,28.6744255 19.9368518,28.6744255 L50.6172314,23.5151932 L50.6172314,5.45955195" id="Fill-198" fill="#7A5748" sketch:type="MSShapeGroup"></path>
            <path d="M63.6532372,29.00334 C63.6532372,29.00334 46.3591094,26.4237239 32.5992061,42.7089092 C18.8393028,58.9949304 10.7418493,52.54589 10.7418493,52.54589 C10.7418493,52.54589 16.4544536,32.8627333 19.9636009,29.00334 C19.9636009,29.00334 50.6439805,12.2341632 63.6532372,20.9409947 L63.6532372,29.00334" id="Fill-199" fill="#C6C29F" sketch:type="MSShapeGroup"></path>
            <path d="M63.4041362,21.1839216 L63.5002658,0.88720748 C63.5002658,0.88720748 78.5207203,-0.100837332 87.5644232,21.1839216 L63.4041362,21.1839216" id="Fill-200" fill="#8B776A" sketch:type="MSShapeGroup"></path>
            <path d="M76.7786853,5.45955195 C76.7786853,5.45955195 83.6431726,-3.57328412 94.8234597,6.4233554 C106.004583,16.4199949 107.459065,28.6744255 107.459065,28.6744255 L76.7786853,23.5151932 L76.7786853,5.45955195" id="Fill-201" fill="#8B776A" sketch:type="MSShapeGroup"></path>
            <path d="M63.4041362,29.00334 C63.4041362,29.00334 80.6965923,26.4237239 94.4573314,42.7089092 C108.218071,58.9949304 116.315524,52.54589 116.315524,52.54589 C116.315524,52.54589 110.60292,32.8627333 107.092937,29.00334 C107.092937,29.00334 76.412557,12.2341632 63.4041362,20.9409947 L63.4041362,29.00334" id="Fill-202" fill="#D1CDC0" sketch:type="MSShapeGroup"></path>
            <path d="M58.2251057,18.8253159 C58.2251057,18.8253159 53.7362726,24.8045753 54.3807587,29.5458529 C54.3807587,29.5458529 48.5486194,30.6718228 43.5206249,33.6025208 C43.5206249,33.6025208 40.4294322,29.8543035 45.040308,19.4932075 C45.040308,19.4932075 52.8084133,17.6516993 58.2251057,18.8253159" id="Fill-203" fill="#828E75" sketch:type="MSShapeGroup"></path>
            <path d="M35.4703577,21.7778096 C35.4703577,21.7778096 28.1561512,28.8144942 31.9687336,44.3682589 C31.9687336,44.3682589 26.2728475,52.3980038 18.267344,52.1330205 C18.267344,52.1330205 17.8987079,40.1101368 26.4734657,25.3772351 C26.4734657,25.3772351 31.6276826,22.9564417 35.4703577,21.7778096" id="Fill-204" fill="#828E75" sketch:type="MSShapeGroup"></path>
            <path d="M69.2555014,18.8253159 C69.2555014,18.8253159 73.7443345,24.8045753 73.0998484,29.5458529 C73.0998484,29.5458529 78.9328236,30.6718228 83.9608181,33.6025208 C83.9608181,33.6025208 87.0511749,29.8543035 82.441135,19.4932075 C82.441135,19.4932075 74.6721938,17.6516993 69.2555014,18.8253159" id="Fill-205" fill="#828E75" sketch:type="MSShapeGroup"></path>
            <path d="M91.825053,21.7778096 C91.825053,21.7778096 99.1392595,28.8144942 95.327513,44.3682589 C95.327513,44.3682589 101.023399,52.3980038 109.028903,52.1330205 C109.028903,52.1330205 109.396703,40.1101368 100.822781,25.3772351 C100.822781,25.3772351 95.6677281,22.9564417 91.825053,21.7778096" id="Fill-206" fill="#828E75" sketch:type="MSShapeGroup"></path>
            <path d="M81.3562321,55.3787236 C80.3840696,53.5765031 79.9360222,51.4691757 80.1943181,49.281601 C80.8613738,43.6208231 85.9905133,39.5733502 91.6504553,40.2395699 C119.3341,43.4971085 126.613198,61.9798994 126.593137,71.3019601 L105.954536,71.2584929 C105.954536,71.2584929 105.947012,71.3738483 105.961223,71.5878411 C105.85757,70.0923994 104.557731,62.5399587 89.2355133,60.7360664 C85.763146,60.3273067 82.8976489,58.2392053 81.3562321,55.3787236" id="Fill-207" fill="#8B776A" sketch:type="MSShapeGroup"></path>
            <path d="M45.9478868,55.3787236 C46.9200493,53.5765031 47.3664249,51.4691757 47.1098008,49.281601 C46.4427451,43.6208231 41.3136056,39.5733502 35.6528277,40.2395699 C7.97001883,43.4971085 0.690084592,61.9798994 0.710982325,71.3019601 L21.3487474,71.2584929 C21.3487474,71.2584929 21.3571065,71.3738483 21.3428961,71.5878411 C21.4465488,70.0923994 22.7455519,62.5399587 38.0686056,60.7360664 C41.5409729,60.3273067 44.4056341,58.2392053 45.9478868,55.3787236" id="Fill-208" fill="#7A5748" sketch:type="MSShapeGroup"></path>
        </g>
    </g>
</svg>