<?xml version="1.0" encoding="UTF-8" standalone="no"?>
<svg width="200px" height="128px" viewBox="0 0 200 128" version="1.1" xmlns="http://www.w3.org/2000/svg" xmlns:xlink="http://www.w3.org/1999/xlink" xmlns:sketch="http://www.bohemiancoding.com/sketch/ns">
    <!-- Generator: Sketch 3.4.4 (17249) - http://www.bohemiancoding.com/sketch -->
    <title>Untitled 7</title>
    <desc>Created with Sketch.</desc>
    <defs>
        <path id="path-1" d="M64.8675556,64.1493333 C62.5450667,64.0824889 60.5624889,63.5079111 58.6951111,62.7911111 C56.8334222,62.0416 55.1054222,61.1157333 53.4940444,60.0135111 C51.8926222,58.9084444 50.3893333,57.6298667 49.0268444,56.1607111 C47.6714667,54.6659556 46.4213333,53.0389333 45.5111111,50.9169778 C47.8307556,50.9880889 49.7962667,51.5640889 51.6864,52.2752 C53.5395556,53.0275556 55.2704,53.952 56.8888889,55.0528 C58.5002667,56.1436444 59.9950222,57.4307556 61.3617778,58.8913778 C62.7043556,60.3861333 63.9587556,62.0216889 64.8675556,64.1493333"></path>
        <path id="path-3" d="M56.3285333,72.6897778 C54.0060444,72.6257778 52.0305778,72.0455111 50.1532444,71.3287111 C48.2944,70.5777778 46.5678222,69.6590222 44.9564444,68.5496889 C43.3507556,67.4389333 41.8517333,66.1703111 40.4892444,64.7054222 C39.1466667,63.2120889 37.8936889,61.5836444 36.9777778,59.4503111 C39.2846222,59.5285333 41.2657778,60.1031111 43.1459556,60.8142222 C45.0062222,61.5608889 46.7356444,62.4924444 48.3413333,63.5975111 C49.9683556,64.6954667 51.4517333,65.9640889 52.8213333,67.4247111 C54.1781333,68.9137778 55.4296889,70.5450667 56.3285333,72.6897778"></path>
        <path id="path-5" d="M11.6290633,85.5594667 C10.5140411,85.5594667 9.44026329,84.9536 8.88701884,83.8926222 C8.09341884,82.3736889 8.68079662,80.5034667 10.1940411,79.7127111 C10.6534188,79.4737778 11.1426633,79.3614222 11.6247966,79.3614222 C12.7426633,79.3614222 13.8164411,79.9701333 14.37253,81.0311111 C15.1647077,82.5543111 14.5815966,84.4117333 13.0583966,85.2067556 C12.6004411,85.4456889 12.1097744,85.5594667 11.6290633,85.5594667"></path>
    </defs>
    <g id="Page-1" stroke="none" stroke-width="1" fill="none" fill-rule="evenodd" sketch:type="MSPage">
        <g id="Group" sketch:type="MSLayerGroup" transform="translate(0.593178, 0.000000)">
            <path d="M12.2667325,108.703289 L11.1943769,102.225067 C12.2653103,102.158222 13.3732214,102.087111 14.5252214,102.011733 L19.6395325,107.025067 L18.7549103,101.680356 C20.1984658,101.569422 21.6491325,101.4528 23.067088,101.330489 L28.5227325,106.666667 L27.5769547,100.970667 C32.2475325,100.572444 36.2809547,100.269511 38.3588214,100.280889 L39.3501103,102.708622 L35.6224658,106.692267 L40.8519769,106.358044 L42.5330436,110.458311 L39.3557992,113.850311 L43.8073547,113.572978 L45.3575769,117.344711 L40.820688,122.197333 L47.1922436,121.797689 L49.2772214,126.872178 C51.611088,127.034311 60.9024658,104.503467 76.4885992,81.1619556 L118.15971,70.1226667 C120.267444,69.6732444 121.501932,67.4645333 120.920244,65.1861333 L93.236688,59.392 C99.7490436,52.1728 106.938377,45.6391111 114.807532,40.6001778 C118.81251,39.3472 140.332155,21.9534222 158.175355,37.9861333 L165.495532,66.9084444 C165.728777,69.2224 167.67011,71.0584889 169.844688,71.0001778 L177.656955,43.4389333 L197.701755,25.6056889 C196.957932,23.3784889 194.67811,22.0615111 192.624421,22.6759111 L167.705666,27.648 C163.747621,24.2332444 136.935888,14.1923556 127.435444,12.5952 C117.893755,10.8899556 107.936777,9.87591111 97.8617547,10.4789333 C87.822288,10.9980444 77.6804214,12.9592889 68.1700214,16.4366222 C64.2105547,17.8474667 60.379088,19.5612444 56.6912658,21.4968889 L35.3209547,1.1392 C33.1520658,1.31697778 31.6786436,3.3536 32.0356214,5.6704 L36.5895769,35.5057778 C31.0301103,40.4721778 26.0224658,45.9363556 21.6007769,51.7504 C18.7349992,55.6259556 16.1877992,59.7063111 14.2621103,64.1621333 C12.3207769,68.6008889 -5.22233418,101.550933 1.54459916,102.372978 C2.57002138,102.478222 4.0818436,102.500978 5.88948805,102.466844 L12.2667325,108.703289 Z" id="Fill-120" fill="#706F68" sketch:type="MSShapeGroup"></path>
            <path d="M51.6864,52.2752 C53.5395556,53.0275556 55.2704,53.952 56.8888889,55.0528 C58.5002667,56.1436444 59.9950222,57.4307556 61.3617778,58.8913778 C62.7043556,60.3861333 63.9587556,62.0216889 64.8675556,64.1493333 C62.5450667,64.0824889 60.5624889,63.5079111 58.6951111,62.7911111 C56.8334222,62.0416 55.1054222,61.1157333 53.4940444,60.0135111 C51.8926222,58.9084444 50.3893333,57.6298667 49.0268444,56.1607111 C47.6714667,54.6659556 46.4213333,53.0389333 45.5111111,50.9169778 C47.8307556,50.9880889 49.7962667,51.5640889 51.6864,52.2752" id="Fill-121" fill="#ACCEC8" sketch:type="MSShapeGroup"></path>
            <path d="M43.1459556,60.8142222 C45.0062222,61.5608889 46.7356444,62.4924444 48.3413333,63.5975111 C49.9683556,64.6954667 51.4517333,65.9640889 52.8213333,67.4247111 C54.1781333,68.9137778 55.4296889,70.5450667 56.3285333,72.6897778 C54.0060444,72.6257778 52.0305778,72.0455111 50.1532444,71.3287111 C48.2944,70.5777778 46.5678222,69.6590222 44.9564444,68.5496889 C43.3507556,67.4389333 41.8517333,66.1703111 40.4892444,64.7054222 C39.1466667,63.2120889 37.8936889,61.5836444 36.9777778,59.4503111 C39.2846222,59.5285333 41.2657778,60.1031111 43.1459556,60.8142222" id="Fill-122" fill="#ACCEC8" sketch:type="MSShapeGroup"></path>
            <path d="M10.1940411,79.7130819 C11.7200855,78.9209042 13.5775077,79.5125486 14.37253,81.0314819 C15.1647077,82.5546819 14.5815966,84.4121042 13.0583966,85.2071264 C11.5423077,85.9978819 9.67919662,85.4119264 8.88701884,83.892993 C8.09341884,82.3740597 8.68079662,80.5038375 10.1940411,79.7130819" id="Fill-123" fill="#0A0A08" sketch:type="MSShapeGroup"></path>
            <mask id="mask-2" sketch:name="Clip 622" fill="white">
                <use xlink:href="#path-1"></use>
            </mask>
            <g id="Clip-622"></g>
            <path d="M64.8675556,64.1493333 C62.5450667,64.0824889 60.5624889,63.5079111 58.6951111,62.7911111 C56.8334222,62.0416 55.1054222,61.1157333 53.4940444,60.0135111 C51.8926222,58.9084444 50.3893333,57.6298667 49.0268444,56.1607111 C47.6714667,54.6659556 46.4213333,53.0389333 45.5111111,50.9169778 C47.8307556,50.9880889 49.7962667,51.5640889 51.6864,52.2752 C53.5395556,53.0275556 55.2704,53.952 56.8888889,55.0528 C58.5002667,56.1436444 59.9950222,57.4307556 61.3617778,58.8913778 C62.7043556,60.3861333 63.9587556,62.0216889 64.8675556,64.1493333" id="Fill-621" sketch:type="MSShapeGroup" mask="url(#mask-2)"></path>
            <mask id="mask-4" sketch:name="Clip 625" fill="white">
                <use xlink:href="#path-3"></use>
            </mask>
            <g id="Clip-625"></g>
            <path d="M56.3285333,72.6897778 C54.0060444,72.6257778 52.0305778,72.0455111 50.1532444,71.3287111 C48.2944,70.5777778 46.5678222,69.6590222 44.9564444,68.5496889 C43.3507556,67.4389333 41.8517333,66.1703111 40.4892444,64.7054222 C39.1466667,63.2120889 37.8936889,61.5836444 36.9777778,59.4503111 C39.2846222,59.5285333 41.2657778,60.1031111 43.1459556,60.8142222 C45.0062222,61.5608889 46.7356444,62.4924444 48.3413333,63.5975111 C49.9683556,64.6954667 51.4517333,65.9640889 52.8213333,67.4247111 C54.1781333,68.9137778 55.4296889,70.5450667 56.3285333,72.6897778" id="Fill-624" sketch:type="MSShapeGroup" mask="url(#mask-4)"></path>
            <mask id="mask-6" sketch:name="Clip 628" fill="white">
                <use xlink:href="#path-5"></use>
            </mask>
            <g id="Clip-628"></g>
            <path d="M11.6290633,85.5594667 C10.5140411,85.5594667 9.44026329,84.9536 8.88701884,83.8926222 C8.09341884,82.3736889 8.68079662,80.5034667 10.1940411,79.7127111 C10.6534188,79.4737778 11.1426633,79.3614222 11.6247966,79.3614222 C12.7426633,79.3614222 13.8164411,79.9701333 14.37253,81.0311111 C15.1647077,82.5543111 14.5815966,84.4117333 13.0583966,85.2067556 C12.6004411,85.4456889 12.1097744,85.5594667 11.6290633,85.5594667" id="Fill-627" sketch:type="MSShapeGroup" mask="url(#mask-6)"></path>
        </g>
    </g>
</svg>