<?xml version="1.0" encoding="UTF-8" standalone="no"?>
<svg width="238px" height="193px" viewBox="0 0 238 193" version="1.1" xmlns="http://www.w3.org/2000/svg" xmlns:xlink="http://www.w3.org/1999/xlink" xmlns:sketch="http://www.bohemiancoding.com/sketch/ns">
    <!-- Generator: Sketch 3.4.4 (17249) - http://www.bohemiancoding.com/sketch -->
    <title>Untitled 7</title>
    <desc>Created with Sketch.</desc>
    <defs></defs>
    <g id="Page-1" stroke="none" stroke-width="1" fill="none" fill-rule="evenodd" sketch:type="MSPage">
        <g id="Group" sketch:type="MSLayerGroup" transform="translate(0.179870, 0.000000)">
            <path d="M236.027393,138.491101 C236.027393,95.4624631 203.076623,60.5735034 162.434361,60.5735034 C124.737115,60.5735034 93.6823443,90.5752886 89.3684262,129.251711 L89.3541803,129.240054 C89.3541803,129.240054 89.3192131,129.620872 89.2428033,130.295725 C89.2350328,130.381215 89.223377,130.465409 89.2169016,130.548309 C88.3232951,138.415973 82.7790492,170.481174 67.3429672,160.230154 C64.8020164,158.542376 57.9575082,154.432383 60.6771803,150.973926 C63.3942623,147.514174 86.6073115,133.679054 81.6691639,90.6983423 C81.6691639,90.6983423 53.7614426,98.6048658 46.3522787,131.706309 C46.3522787,131.706309 39.1891803,108.238027 0.167065574,114.166624 C0.167065574,114.166624 2.6717541,149.887168 47.8351475,155.664215 C47.8351475,155.664215 50.3061639,156.214718 51.7527705,158.849362 C60.0270492,173.930564 66.3574098,193 164.40418,193 L170.579131,193 C212.081328,193 236.027393,188.325255 236.027393,138.491101" id="Fill-85" fill="#324248" sketch:type="MSShapeGroup"></path>
            <path d="M221.711557,151.981671 C221.711557,156.399946 218.129361,159.981456 213.710541,159.981456 C209.291721,159.981456 205.71341,156.399946 205.71341,151.981671 C205.71341,147.563396 209.291721,143.978 213.710541,143.978 C218.129361,143.978 221.711557,147.563396 221.711557,151.981671" id="Fill-86" fill="#2B2D2C" sketch:type="MSShapeGroup"></path>
            <path d="M179.222508,20.5486711 C179.222508,31.1882819 165.887049,42.7799396 165.887049,42.7799396 C165.887049,42.7799396 152.549,31.1882819 152.549,20.5486711 C152.549,9.9077651 156.748951,1.28105369 165.887049,1.28105369 C175.023852,1.28105369 179.222508,9.9077651 179.222508,20.5486711" id="Fill-87" fill="#EEEEEA" sketch:type="MSShapeGroup"></path>
            <path d="M194.953869,45.2889396 C190.042918,50.2020201 178.53741,49.3937517 178.53741,49.3937517 C178.53741,49.3937517 177.729279,37.8849933 182.64023,32.9732081 C187.55118,28.0614228 193.47359,26.0161409 197.690377,30.2362349 C201.909754,34.4563289 199.866115,40.3771544 194.953869,45.2889396" id="Fill-88" fill="#EEEEEA" sketch:type="MSShapeGroup"></path>
            <path d="M136.088508,45.2889396 C140.999459,50.2020201 152.506262,49.3937517 152.506262,49.3937517 C152.506262,49.3937517 153.314393,37.8849933 148.402148,32.9732081 C143.491197,28.0614228 137.570082,26.0161409 133.352,30.2362349 C129.131328,34.4563289 131.176262,40.3771544 136.088508,45.2889396" id="Fill-89" fill="#EEEEEA" sketch:type="MSShapeGroup"></path>
            <path d="M171.073852,65.1342617 C171.073852,66.0215436 168.529016,66.7391409 165.392328,66.7391409 C162.254344,66.7391409 159.713393,66.0215436 159.713393,65.1342617 C159.713393,64.2469799 162.254344,63.5293826 165.392328,63.5293826 C168.529016,63.5293826 171.073852,64.2469799 171.073852,65.1342617" id="Fill-90" fill="#EEEEEA" sketch:type="MSShapeGroup"></path>
        </g>
    </g>
</svg>